<svg width="160" height="160" viewBox="0 0 160 160" fill="none" xmlns="http://www.w3.org/2000/svg">
<rect x="104.35" y="30.3152" width="61.9817" height="45.6918" transform="rotate(60 104.35 30.3152)" fill="url(#paint0_linear_244_16)"/>
<ellipse cx="119.064" cy="57.6054" rx="30.9909" ry="9.32735" transform="rotate(60 119.064 57.6054)" fill="#D9D9D9"/>
<path d="M118.115 55.0078L121.092 57.508L124.314 79.9369L119.858 75.5294L118.115 55.0078Z" fill="#303030"/>
<rect x="56.2008" y="129.685" width="61.9817" height="45.6918" transform="rotate(-120 56.2008 129.685)" fill="url(#paint1_linear_244_16)"/>
<ellipse cx="41.4871" cy="102.395" rx="30.9909" ry="9.32735" transform="rotate(-120 41.4871 102.395)" fill="#D9D9D9"/>
<path d="M42.4363 104.992L39.4588 102.492L36.2375 80.0631L40.693 84.4706L42.4363 104.992Z" fill="#303030"/>
<path d="M150.673 90.6968C149.36 91.4546 147.693 90.4854 147.574 88.9745C147.455 87.456 147.242 85.8235 146.933 84.086C145.2 74.3578 140.535 62.0005 133.264 49.4069C125.993 36.8133 117.624 26.5947 110.066 20.23C106.276 17.039 102.819 14.9262 99.9185 13.9023C97.0041 12.8736 95.0454 13.0652 93.7729 13.7998C92.5004 14.5345 91.3552 16.135 90.7888 19.1732C90.2251 22.1976 90.3265 26.2477 91.1952 31.1249C92.928 40.8531 97.593 53.2103 104.864 65.8039C112.135 78.3975 120.504 88.6161 128.062 94.9809C129.412 96.1176 130.72 97.1176 131.976 97.9802C133.225 98.8385 133.23 100.767 131.918 101.525V101.525C122.629 95.7741 111.523 83.3387 102.266 67.3039C87.4694 41.6759 82.9955 16.5581 92.2729 11.2018C101.55 5.84542 121.066 22.2789 135.862 47.9069C145.12 63.9417 150.337 79.7767 150.673 90.6968V90.6968Z" fill="#00FFE0"/>
<path d="M9.86166 68.4339C9.93688 79.3727 15.1824 95.6276 24.6887 112.093C39.4851 137.721 59.0007 154.155 68.2782 148.798C77.5556 143.442 73.0816 118.324 58.2853 92.6961C48.7789 76.2306 37.3245 63.5604 27.8889 58.0259V58.0259C26.5811 58.7809 26.6148 60.7217 27.877 61.5505C29.3435 62.5134 30.8863 63.6699 32.4886 65.0192C40.0471 71.3839 48.4163 81.6025 55.6872 94.1961C62.9581 106.79 67.6231 119.147 69.3559 128.875C70.2246 133.752 70.326 137.802 69.7622 140.827C69.1959 143.865 68.0507 145.466 66.7782 146.2C65.5057 146.935 63.547 147.126 60.6326 146.098C57.7316 145.074 54.2748 142.961 50.4854 139.77C42.9269 133.405 34.5577 123.187 27.2868 110.593C20.0159 97.9995 15.3509 85.6422 13.6181 75.914C13.2508 73.8518 13.0207 71.9374 12.92 70.186C12.8333 68.6784 11.1694 67.6789 9.86166 68.4339V68.4339Z" fill="#D327FE"/>
<path d="M39.1833 81.6361C48.622 76.1814 50.8369 73.1814 59.5681 71.7037C64.8364 70.8121 70.5143 70.8115 76.0906 73.2898C84.9252 77.2163 83.5949 84.1956 92.3969 88.1565C94.203 88.9692 95.8905 89.2284 97.833 89.2284C101.343 89.2284 105.197 88.1565 108.336 86.1818L121.478 77.3547" stroke="#303030" stroke-width="5" stroke-linecap="round"/>
<path d="M148.835 99.5914L142.086 81.9935L154.656 86.8594L148.835 99.5914Z" fill="#D327FE"/>
<path d="M11.1653 59.7781L17.914 77.376L5.34399 72.51L11.1653 59.7781Z" fill="#00FFE0"/>
<defs>
<linearGradient id="paint0_linear_244_16" x1="135.341" y1="30.3152" x2="135.341" y2="76.007" gradientUnits="userSpaceOnUse">
<stop stop-color="#737373"/>
<stop offset="1" stop-color="#D9D9D9"/>
</linearGradient>
<linearGradient id="paint1_linear_244_16" x1="87.1917" y1="129.685" x2="87.1917" y2="175.377" gradientUnits="userSpaceOnUse">
<stop stop-color="#737373"/>
<stop offset="1" stop-color="#D9D9D9"/>
</linearGradient>
</defs>
</svg>
