<svg width="1064" height="1072" viewBox="0 0 1064 1072" fill="none" xmlns="http://www.w3.org/2000/svg">
<rect x="32" y="35.9574" width="1000" height="1000" rx="142.857" fill="#494949"/>
<path d="M920.705 754.449H930.672V764.112H920.705V754.449ZM930.672 754.449H940.639V764.112H930.672V754.449ZM940.639 754.449H950.606V764.112H940.639V754.449ZM910.739 764.112H920.705V773.775H910.739V764.112ZM940.639 764.112H950.606V773.775H940.639V764.112ZM950.606 764.112H960.572V773.775H950.606V764.112ZM910.739 773.775H920.705V783.437H910.739V773.775ZM930.672 773.775H940.639V783.437H930.672V773.775ZM950.606 773.775H960.572V783.437H950.606V773.775ZM910.739 783.437H920.705V793.1H910.739V783.437ZM920.705 783.437H930.672V793.1H920.705V783.437ZM950.606 783.437H960.572V793.1H950.606V783.437ZM920.705 793.1H930.672V802.763H920.705V793.1ZM930.672 793.1H940.639V802.763H930.672V793.1ZM940.639 793.1H950.606V802.763H940.639V793.1Z" fill="#A9A9A9"/>
<path d="M860.904 754.449H870.87V764.112H860.904V754.449ZM870.87 754.449H880.837V764.112H870.87V754.449ZM880.837 754.449H890.804V764.112H880.837V754.449ZM850.937 764.112H860.904V773.775H850.937V764.112ZM880.837 764.112H890.804V773.775H880.837V764.112ZM890.804 764.112H900.771V773.775H890.804V764.112ZM850.937 773.775H860.904V783.437H850.937V773.775ZM870.87 773.775H880.837V783.437H870.87V773.775ZM890.804 773.775H900.771V783.437H890.804V773.775ZM850.937 783.437H860.904V793.1H850.937V783.437ZM860.904 783.437H870.87V793.1H860.904V783.437ZM890.804 783.437H900.771V793.1H890.804V783.437ZM860.904 793.1H870.87V802.763H860.904V793.1ZM870.87 793.1H880.837V802.763H870.87V793.1ZM880.837 793.1H890.804V802.763H880.837V793.1Z" fill="#A9A9A9"/>
<path d="M761.236 754.449H771.203V764.112H761.236V754.449ZM771.203 754.449H781.17V764.112H771.203V754.449ZM781.17 754.449H791.137V764.112H781.17V754.449ZM791.137 754.449H801.104V764.112H791.137V754.449ZM801.104 754.449H811.07V764.112H801.104V754.449ZM801.104 764.112H811.07V773.775H801.104V764.112ZM771.203 773.775H781.17V783.437H771.203V773.775ZM781.17 773.775H791.137V783.437H781.17V773.775ZM791.137 773.775H801.104V783.437H791.137V773.775ZM791.137 783.437H801.104V793.1H791.137V783.437ZM791.137 793.1H801.104V802.763H791.137V793.1Z" fill="#A9A9A9"/>
<path d="M711.402 754.449H721.368V764.112H711.402V754.449ZM721.368 754.449H731.335V764.112H721.368V754.449ZM731.335 754.449H741.302V764.112H731.335V754.449ZM701.435 764.112H711.402V773.775H701.435V764.112ZM731.335 764.112H741.302V773.775H731.335V764.112ZM741.302 764.112H751.269V773.775H741.302V764.112ZM701.435 773.775H711.402V783.437H701.435V773.775ZM721.368 773.775H731.335V783.437H721.368V773.775ZM741.302 773.775H751.269V783.437H741.302V773.775ZM701.435 783.437H711.402V793.1H701.435V783.437ZM711.402 783.437H721.368V793.1H711.402V783.437ZM741.302 783.437H751.269V793.1H741.302V783.437ZM711.402 793.1H721.368V802.763H711.402V793.1ZM721.368 793.1H731.335V802.763H721.368V793.1ZM731.335 793.1H741.302V802.763H731.335V793.1Z" fill="#A9A9A9"/>
<path d="M621.701 754.449H631.668V764.112H621.701V754.449ZM631.668 754.449H641.635V764.112H631.668V754.449ZM641.635 754.449H651.602V764.112H641.635V754.449ZM611.734 764.112H621.701V773.775H611.734V764.112ZM651.602 764.112H661.568V773.775H651.602V764.112ZM611.734 773.775H621.701V783.437H611.734V773.775ZM611.734 783.437H621.701V793.1H611.734V783.437ZM651.602 783.437H661.568V793.1H651.602V783.437ZM621.701 793.1H631.668V802.763H621.701V793.1ZM631.668 793.1H641.635V802.763H631.668V793.1ZM641.635 793.1H651.602V802.763H641.635V793.1Z" fill="#A9A9A9"/>
<path d="M551.933 754.449H561.899V764.112H551.933V754.449ZM581.833 754.449H591.8V764.112H581.833V754.449ZM551.933 764.112H561.899V773.775H551.933V764.112ZM581.833 764.112H591.8V773.775H581.833V764.112ZM561.899 773.775H571.866V783.437H561.899V773.775ZM571.866 773.775H581.833V783.437H571.866V773.775ZM581.833 773.775H591.8V783.437H581.833V773.775ZM591.8 773.775H601.767V783.437H591.8V773.775ZM581.833 783.437H591.8V793.1H581.833V783.437ZM581.833 793.1H591.8V802.763H581.833V793.1Z" fill="#A9A9A9"/>
<path d="M472.199 754.449H482.166V764.112H472.199V754.449ZM482.166 754.449H492.133V764.112H482.166V754.449ZM492.133 754.449H502.1V764.112H492.133V754.449ZM462.232 764.112H472.199V773.775H462.232V764.112ZM492.133 764.112H502.1V773.775H492.133V764.112ZM502.1 764.112H512.066V773.775H502.1V764.112ZM462.232 773.775H472.199V783.437H462.232V773.775ZM482.166 773.775H492.133V783.437H482.166V773.775ZM502.1 773.775H512.066V783.437H502.1V773.775ZM462.232 783.437H472.199V793.1H462.232V783.437ZM472.199 783.437H482.166V793.1H472.199V783.437ZM502.1 783.437H512.066V793.1H502.1V783.437ZM472.199 793.1H482.166V802.763H472.199V793.1ZM482.166 793.1H492.133V802.763H482.166V793.1ZM492.133 793.1H502.1V802.763H492.133V793.1Z" fill="#A9A9A9"/>
<path d="M422.367 754.449H432.333V764.112H422.367V754.449ZM402.433 764.112H412.4V773.775H402.433V764.112ZM412.4 764.112H422.367V773.775H412.4V764.112ZM422.367 764.112H432.333V773.775H422.367V764.112ZM422.367 773.775H432.333V783.437H422.367V773.775ZM422.367 783.437H432.333V793.1H422.367V783.437ZM402.433 793.1H412.4V802.763H402.433V793.1ZM412.4 793.1H422.367V802.763H412.4V793.1ZM422.367 793.1H432.333V802.763H422.367V793.1ZM432.333 793.1H442.3V802.763H432.333V793.1ZM442.3 793.1H452.267V802.763H442.3V793.1Z" fill="#A9A9A9"/>
<path d="M312.733 754.449H322.699V764.112H312.733V754.449ZM322.699 754.449H332.666V764.112H322.699V754.449ZM332.666 754.449H342.633V764.112H332.666V754.449ZM342.633 754.449H352.6V764.112H342.633V754.449ZM352.6 764.112H362.567V773.775H352.6V764.112ZM322.699 773.775H332.666V783.437H322.699V773.775ZM332.666 773.775H342.633V783.437H332.666V773.775ZM342.633 773.775H352.6V783.437H342.633V773.775ZM352.6 783.437H362.567V793.1H352.6V783.437ZM312.733 793.1H322.699V802.763H312.733V793.1ZM322.699 793.1H332.666V802.763H322.699V793.1ZM332.666 793.1H342.633V802.763H332.666V793.1ZM342.633 793.1H352.6V802.763H342.633V793.1Z" fill="#A9A9A9"/>
<path d="M252.929 754.449H262.895V764.112H252.929V754.449ZM282.829 754.449H292.796V764.112H282.829V754.449ZM252.929 764.112H262.895V773.775H252.929V764.112ZM282.829 764.112H292.796V773.775H282.829V764.112ZM262.895 773.775H272.862V783.437H262.895V773.775ZM272.862 773.775H282.829V783.437H272.862V773.775ZM282.829 773.775H292.796V783.437H282.829V773.775ZM292.796 773.775H302.762V783.437H292.796V773.775ZM282.829 783.437H292.796V793.1H282.829V783.437ZM282.829 793.1H292.796V802.763H282.829V793.1Z" fill="#A9A9A9"/>
<path d="M173.197 754.449H183.164V764.112H173.197V754.449ZM183.164 754.449H193.131V764.112H183.164V754.449ZM193.131 754.449H203.098V764.112H193.131V754.449ZM163.231 764.112H173.197V773.775H163.231V764.112ZM193.131 764.112H203.098V773.775H193.131V764.112ZM203.098 764.112H213.065V773.775H203.098V764.112ZM163.231 773.775H173.197V783.437H163.231V773.775ZM183.164 773.775H193.131V783.437H183.164V773.775ZM203.098 773.775H213.065V783.437H203.098V773.775ZM163.231 783.437H173.197V793.1H163.231V783.437ZM173.197 783.437H183.164V793.1H173.197V783.437ZM203.098 783.437H213.065V793.1H203.098V783.437ZM173.197 793.1H183.164V802.763H173.197V793.1ZM183.164 793.1H193.131V802.763H183.164V793.1ZM193.131 793.1H203.098V802.763H193.131V793.1Z" fill="#A9A9A9"/>
<path d="M103.429 754.449H113.395V764.112H103.429V754.449ZM113.395 754.449H123.362V764.112H113.395V754.449ZM123.362 754.449H133.329V764.112H123.362V754.449ZM133.329 754.449H143.296V764.112H133.329V754.449ZM143.296 754.449H153.262V764.112H143.296V754.449ZM103.429 764.112H113.395V773.775H103.429V764.112ZM103.429 773.775H113.395V783.437H103.429V773.775ZM113.395 773.775H123.362V783.437H113.395V773.775ZM123.362 773.775H133.329V783.437H123.362V773.775ZM133.329 773.775H143.296V783.437H133.329V773.775ZM103.429 783.437H113.395V793.1H103.429V783.437ZM103.429 793.1H113.395V802.763H103.429V793.1Z" fill="#A9A9A9"/>
<path d="M920.705 511.801H930.672V521.463H920.705V511.801ZM930.672 511.801H940.639V521.463H930.672V511.801ZM940.639 511.801H950.606V521.463H940.639V511.801ZM910.739 521.463H920.705V531.126H910.739V521.463ZM940.639 521.463H950.606V531.126H940.639V521.463ZM950.606 521.463H960.572V531.126H950.606V521.463ZM910.739 531.126H920.705V540.789H910.739V531.126ZM930.672 531.126H940.639V540.789H930.672V531.126ZM950.606 531.126H960.572V540.789H950.606V531.126ZM910.739 540.789H920.705V550.451H910.739V540.789ZM920.705 540.789H930.672V550.451H920.705V540.789ZM950.606 540.789H960.572V550.451H950.606V540.789ZM920.705 550.451H930.672V560.114H920.705V550.451ZM930.672 550.451H940.639V560.114H930.672V550.451ZM940.639 550.451H950.606V560.114H940.639V550.451Z" fill="#A9A9A9"/>
<path d="M860.904 511.801H870.87V521.463H860.904V511.801ZM870.87 511.801H880.837V521.463H870.87V511.801ZM880.837 511.801H890.804V521.463H880.837V511.801ZM850.937 521.463H860.904V531.126H850.937V521.463ZM880.837 521.463H890.804V531.126H880.837V521.463ZM890.804 521.463H900.771V531.126H890.804V521.463ZM850.937 531.126H860.904V540.789H850.937V531.126ZM870.87 531.126H880.837V540.789H870.87V531.126ZM890.804 531.126H900.771V540.789H890.804V531.126ZM850.937 540.789H860.904V550.451H850.937V540.789ZM860.904 540.789H870.87V550.451H860.904V540.789ZM890.804 540.789H900.771V550.451H890.804V540.789ZM860.904 550.451H870.87V560.114H860.904V550.451ZM870.87 550.451H880.837V560.114H870.87V550.451ZM880.837 550.451H890.804V560.114H880.837V550.451Z" fill="#A9A9A9"/>
<path d="M761.236 511.801H771.203V521.463H761.236V511.801ZM771.203 511.801H781.17V521.463H771.203V511.801ZM781.17 511.801H791.137V521.463H781.17V511.801ZM791.137 511.801H801.104V521.463H791.137V511.801ZM801.104 511.801H811.07V521.463H801.104V511.801ZM801.104 521.463H811.07V531.126H801.104V521.463ZM771.203 531.126H781.17V540.789H771.203V531.126ZM781.17 531.126H791.137V540.789H781.17V531.126ZM791.137 531.126H801.104V540.789H791.137V531.126ZM791.137 540.789H801.104V550.451H791.137V540.789ZM791.137 550.451H801.104V560.114H791.137V550.451Z" fill="#A9A9A9"/>
<path d="M711.402 511.801H721.368V521.463H711.402V511.801ZM721.368 511.801H731.335V521.463H721.368V511.801ZM731.335 511.801H741.302V521.463H731.335V511.801ZM701.435 521.463H711.402V531.126H701.435V521.463ZM731.335 521.463H741.302V531.126H731.335V521.463ZM741.302 521.463H751.269V531.126H741.302V521.463ZM701.435 531.126H711.402V540.789H701.435V531.126ZM721.368 531.126H731.335V540.789H721.368V531.126ZM741.302 531.126H751.269V540.789H741.302V531.126ZM701.435 540.789H711.402V550.451H701.435V540.789ZM711.402 540.789H721.368V550.451H711.402V540.789ZM741.302 540.789H751.269V550.451H741.302V540.789ZM711.402 550.451H721.368V560.114H711.402V550.451ZM721.368 550.451H731.335V560.114H721.368V550.451ZM731.335 550.451H741.302V560.114H731.335V550.451Z" fill="#A9A9A9"/>
<path d="M621.701 511.801H631.668V521.463H621.701V511.801ZM631.668 511.801H641.635V521.463H631.668V511.801ZM641.635 511.801H651.602V521.463H641.635V511.801ZM611.734 521.463H621.701V531.126H611.734V521.463ZM651.602 521.463H661.568V531.126H651.602V521.463ZM611.734 531.126H621.701V540.789H611.734V531.126ZM611.734 540.789H621.701V550.451H611.734V540.789ZM651.602 540.789H661.568V550.451H651.602V540.789ZM621.701 550.451H631.668V560.114H621.701V550.451ZM631.668 550.451H641.635V560.114H631.668V550.451ZM641.635 550.451H651.602V560.114H641.635V550.451Z" fill="#A9A9A9"/>
<path d="M551.933 511.801H561.899V521.463H551.933V511.801ZM581.833 511.801H591.8V521.463H581.833V511.801ZM551.933 521.463H561.899V531.126H551.933V521.463ZM581.833 521.463H591.8V531.126H581.833V521.463ZM561.899 531.126H571.866V540.789H561.899V531.126ZM571.866 531.126H581.833V540.789H571.866V531.126ZM581.833 531.126H591.8V540.789H581.833V531.126ZM591.8 531.126H601.767V540.789H591.8V531.126ZM581.833 540.789H591.8V550.451H581.833V540.789ZM581.833 550.451H591.8V560.114H581.833V550.451Z" fill="#A9A9A9"/>
<path d="M472.199 511.801H482.166V521.463H472.199V511.801ZM482.166 511.801H492.133V521.463H482.166V511.801ZM492.133 511.801H502.1V521.463H492.133V511.801ZM462.232 521.463H472.199V531.126H462.232V521.463ZM492.133 521.463H502.1V531.126H492.133V521.463ZM502.1 521.463H512.066V531.126H502.1V521.463ZM462.232 531.126H472.199V540.789H462.232V531.126ZM482.166 531.126H492.133V540.789H482.166V531.126ZM502.1 531.126H512.066V540.789H502.1V531.126ZM462.232 540.789H472.199V550.451H462.232V540.789ZM472.199 540.789H482.166V550.451H472.199V540.789ZM502.1 540.789H512.066V550.451H502.1V540.789ZM472.199 550.451H482.166V560.114H472.199V550.451ZM482.166 550.451H492.133V560.114H482.166V550.451ZM492.133 550.451H502.1V560.114H492.133V550.451Z" fill="#A9A9A9"/>
<path d="M422.367 511.801H432.333V521.463H422.367V511.801ZM402.433 521.463H412.4V531.126H402.433V521.463ZM412.4 521.463H422.367V531.126H412.4V521.463ZM422.367 521.463H432.333V531.126H422.367V521.463ZM422.367 531.126H432.333V540.789H422.367V531.126ZM422.367 540.789H432.333V550.451H422.367V540.789ZM402.433 550.451H412.4V560.114H402.433V550.451ZM412.4 550.451H422.367V560.114H412.4V550.451ZM422.367 550.451H432.333V560.114H422.367V550.451ZM432.333 550.451H442.3V560.114H432.333V550.451ZM442.3 550.451H452.267V560.114H442.3V550.451Z" fill="#A9A9A9"/>
<path d="M312.733 511.801H322.699V521.463H312.733V511.801ZM322.699 511.801H332.666V521.463H322.699V511.801ZM332.666 511.801H342.633V521.463H332.666V511.801ZM342.633 511.801H352.6V521.463H342.633V511.801ZM352.6 521.463H362.567V531.126H352.6V521.463ZM322.699 531.126H332.666V540.789H322.699V531.126ZM332.666 531.126H342.633V540.789H332.666V531.126ZM342.633 531.126H352.6V540.789H342.633V531.126ZM352.6 540.789H362.567V550.451H352.6V540.789ZM312.733 550.451H322.699V560.114H312.733V550.451ZM322.699 550.451H332.666V560.114H322.699V550.451ZM332.666 550.451H342.633V560.114H332.666V550.451ZM342.633 550.451H352.6V560.114H342.633V550.451Z" fill="#A9A9A9"/>
<path d="M252.929 511.801H262.895V521.463H252.929V511.801ZM282.829 511.801H292.796V521.463H282.829V511.801ZM252.929 521.463H262.895V531.126H252.929V521.463ZM282.829 521.463H292.796V531.126H282.829V521.463ZM262.895 531.126H272.862V540.789H262.895V531.126ZM272.862 531.126H282.829V540.789H272.862V531.126ZM282.829 531.126H292.796V540.789H282.829V531.126ZM292.796 531.126H302.762V540.789H292.796V531.126ZM282.829 540.789H292.796V550.451H282.829V540.789ZM282.829 550.451H292.796V560.114H282.829V550.451Z" fill="#A9A9A9"/>
<path d="M173.197 511.801H183.164V521.463H173.197V511.801ZM183.164 511.801H193.131V521.463H183.164V511.801ZM193.131 511.801H203.098V521.463H193.131V511.801ZM163.231 521.463H173.197V531.126H163.231V521.463ZM193.131 521.463H203.098V531.126H193.131V521.463ZM203.098 521.463H213.065V531.126H203.098V521.463ZM163.231 531.126H173.197V540.789H163.231V531.126ZM183.164 531.126H193.131V540.789H183.164V531.126ZM203.098 531.126H213.065V540.789H203.098V531.126ZM163.231 540.789H173.197V550.451H163.231V540.789ZM173.197 540.789H183.164V550.451H173.197V540.789ZM203.098 540.789H213.065V550.451H203.098V540.789ZM173.197 550.451H183.164V560.114H173.197V550.451ZM183.164 550.451H193.131V560.114H183.164V550.451ZM193.131 550.451H203.098V560.114H193.131V550.451Z" fill="#A9A9A9"/>
<path d="M103.429 511.801H113.395V521.463H103.429V511.801ZM113.395 511.801H123.362V521.463H113.395V511.801ZM123.362 511.801H133.329V521.463H123.362V511.801ZM133.329 511.801H143.296V521.463H133.329V511.801ZM143.296 511.801H153.262V521.463H143.296V511.801ZM103.429 521.463H113.395V531.126H103.429V521.463ZM103.429 531.126H113.395V540.789H103.429V531.126ZM113.395 531.126H123.362V540.789H113.395V531.126ZM123.362 531.126H133.329V540.789H123.362V531.126ZM133.329 531.126H143.296V540.789H133.329V531.126ZM103.429 540.789H113.395V550.451H103.429V540.789ZM103.429 550.451H113.395V560.114H103.429V550.451Z" fill="#A9A9A9"/>
<path d="M920.705 269.152H930.672V278.815H920.705V269.152ZM930.672 269.152H940.639V278.815H930.672V269.152ZM940.639 269.152H950.606V278.815H940.639V269.152ZM910.739 278.815H920.705V288.477H910.739V278.815ZM940.639 278.815H950.606V288.477H940.639V278.815ZM950.606 278.815H960.572V288.477H950.606V278.815ZM910.739 288.477H920.705V298.14H910.739V288.477ZM930.672 288.477H940.639V298.14H930.672V288.477ZM950.606 288.477H960.572V298.14H950.606V288.477ZM910.739 298.14H920.705V307.803H910.739V298.14ZM920.705 298.14H930.672V307.803H920.705V298.14ZM950.606 298.14H960.572V307.803H950.606V298.14ZM920.705 307.803H930.672V317.465H920.705V307.803ZM930.672 307.803H940.639V317.465H930.672V307.803ZM940.639 307.803H950.606V317.465H940.639V307.803Z" fill="#A9A9A9"/>
<path d="M860.904 269.152H870.87V278.815H860.904V269.152ZM870.87 269.152H880.837V278.815H870.87V269.152ZM880.837 269.152H890.804V278.815H880.837V269.152ZM850.937 278.815H860.904V288.477H850.937V278.815ZM880.837 278.815H890.804V288.477H880.837V278.815ZM890.804 278.815H900.771V288.477H890.804V278.815ZM850.937 288.477H860.904V298.14H850.937V288.477ZM870.87 288.477H880.837V298.14H870.87V288.477ZM890.804 288.477H900.771V298.14H890.804V288.477ZM850.937 298.14H860.904V307.803H850.937V298.14ZM860.904 298.14H870.87V307.803H860.904V298.14ZM890.804 298.14H900.771V307.803H890.804V298.14ZM860.904 307.803H870.87V317.465H860.904V307.803ZM870.87 307.803H880.837V317.465H870.87V307.803ZM880.837 307.803H890.804V317.465H880.837V307.803Z" fill="#A9A9A9"/>
<path d="M761.236 269.152H771.203V278.815H761.236V269.152ZM771.203 269.152H781.17V278.815H771.203V269.152ZM781.17 269.152H791.137V278.815H781.17V269.152ZM791.137 269.152H801.104V278.815H791.137V269.152ZM801.104 269.152H811.07V278.815H801.104V269.152ZM801.104 278.815H811.07V288.477H801.104V278.815ZM771.203 288.477H781.17V298.14H771.203V288.477ZM781.17 288.477H791.137V298.14H781.17V288.477ZM791.137 288.477H801.104V298.14H791.137V288.477ZM791.137 298.14H801.104V307.803H791.137V298.14ZM791.137 307.803H801.104V317.465H791.137V307.803Z" fill="#A9A9A9"/>
<path d="M711.402 269.152H721.368V278.815H711.402V269.152ZM721.368 269.152H731.335V278.815H721.368V269.152ZM731.335 269.152H741.302V278.815H731.335V269.152ZM701.435 278.815H711.402V288.477H701.435V278.815ZM731.335 278.815H741.302V288.477H731.335V278.815ZM741.302 278.815H751.269V288.477H741.302V278.815ZM701.435 288.477H711.402V298.14H701.435V288.477ZM721.368 288.477H731.335V298.14H721.368V288.477ZM741.302 288.477H751.269V298.14H741.302V288.477ZM701.435 298.14H711.402V307.803H701.435V298.14ZM711.402 298.14H721.368V307.803H711.402V298.14ZM741.302 298.14H751.269V307.803H741.302V298.14ZM711.402 307.803H721.368V317.465H711.402V307.803ZM721.368 307.803H731.335V317.465H721.368V307.803ZM731.335 307.803H741.302V317.465H731.335V307.803Z" fill="#A9A9A9"/>
<path d="M621.701 269.152H631.668V278.815H621.701V269.152ZM631.668 269.152H641.635V278.815H631.668V269.152ZM641.635 269.152H651.602V278.815H641.635V269.152ZM611.734 278.815H621.701V288.477H611.734V278.815ZM651.602 278.815H661.568V288.477H651.602V278.815ZM611.734 288.477H621.701V298.14H611.734V288.477ZM611.734 298.14H621.701V307.803H611.734V298.14ZM651.602 298.14H661.568V307.803H651.602V298.14ZM621.701 307.803H631.668V317.465H621.701V307.803ZM631.668 307.803H641.635V317.465H631.668V307.803ZM641.635 307.803H651.602V317.465H641.635V307.803Z" fill="#A9A9A9"/>
<path d="M551.933 269.152H561.899V278.815H551.933V269.152ZM581.833 269.152H591.8V278.815H581.833V269.152ZM551.933 278.815H561.899V288.477H551.933V278.815ZM581.833 278.815H591.8V288.477H581.833V278.815ZM561.899 288.477H571.866V298.14H561.899V288.477ZM571.866 288.477H581.833V298.14H571.866V288.477ZM581.833 288.477H591.8V298.14H581.833V288.477ZM591.8 288.477H601.767V298.14H591.8V288.477ZM581.833 298.14H591.8V307.803H581.833V298.14ZM581.833 307.803H591.8V317.465H581.833V307.803Z" fill="#A9A9A9"/>
<path d="M472.199 269.152H482.166V278.815H472.199V269.152ZM482.166 269.152H492.133V278.815H482.166V269.152ZM492.133 269.152H502.1V278.815H492.133V269.152ZM462.232 278.815H472.199V288.477H462.232V278.815ZM492.133 278.815H502.1V288.477H492.133V278.815ZM502.1 278.815H512.066V288.477H502.1V278.815ZM462.232 288.477H472.199V298.14H462.232V288.477ZM482.166 288.477H492.133V298.14H482.166V288.477ZM502.1 288.477H512.066V298.14H502.1V288.477ZM462.232 298.14H472.199V307.803H462.232V298.14ZM472.199 298.14H482.166V307.803H472.199V298.14ZM502.1 298.14H512.066V307.803H502.1V298.14ZM472.199 307.803H482.166V317.465H472.199V307.803ZM482.166 307.803H492.133V317.465H482.166V307.803ZM492.133 307.803H502.1V317.465H492.133V307.803Z" fill="#A9A9A9"/>
<path d="M422.367 269.152H432.333V278.815H422.367V269.152ZM402.433 278.815H412.4V288.477H402.433V278.815ZM412.4 278.815H422.367V288.477H412.4V278.815ZM422.367 278.815H432.333V288.477H422.367V278.815ZM422.367 288.477H432.333V298.14H422.367V288.477ZM422.367 298.14H432.333V307.803H422.367V298.14ZM402.433 307.803H412.4V317.465H402.433V307.803ZM412.4 307.803H422.367V317.465H412.4V307.803ZM422.367 307.803H432.333V317.465H422.367V307.803ZM432.333 307.803H442.3V317.465H432.333V307.803ZM442.3 307.803H452.267V317.465H442.3V307.803Z" fill="#A9A9A9"/>
<path d="M312.733 269.152H322.699V278.815H312.733V269.152ZM322.699 269.152H332.666V278.815H322.699V269.152ZM332.666 269.152H342.633V278.815H332.666V269.152ZM342.633 269.152H352.6V278.815H342.633V269.152ZM352.6 278.815H362.567V288.477H352.6V278.815ZM322.699 288.477H332.666V298.14H322.699V288.477ZM332.666 288.477H342.633V298.14H332.666V288.477ZM342.633 288.477H352.6V298.14H342.633V288.477ZM352.6 298.14H362.567V307.803H352.6V298.14ZM312.733 307.803H322.699V317.465H312.733V307.803ZM322.699 307.803H332.666V317.465H322.699V307.803ZM332.666 307.803H342.633V317.465H332.666V307.803ZM342.633 307.803H352.6V317.465H342.633V307.803Z" fill="#A9A9A9"/>
<path d="M252.929 269.152H262.895V278.815H252.929V269.152ZM282.829 269.152H292.796V278.815H282.829V269.152ZM252.929 278.815H262.895V288.477H252.929V278.815ZM282.829 278.815H292.796V288.477H282.829V278.815ZM262.895 288.477H272.862V298.14H262.895V288.477ZM272.862 288.477H282.829V298.14H272.862V288.477ZM282.829 288.477H292.796V298.14H282.829V288.477ZM292.796 288.477H302.762V298.14H292.796V288.477ZM282.829 298.14H292.796V307.803H282.829V298.14ZM282.829 307.803H292.796V317.465H282.829V307.803Z" fill="#A9A9A9"/>
<path d="M173.197 269.152H183.164V278.815H173.197V269.152ZM183.164 269.152H193.131V278.815H183.164V269.152ZM193.131 269.152H203.098V278.815H193.131V269.152ZM163.231 278.815H173.197V288.477H163.231V278.815ZM193.131 278.815H203.098V288.477H193.131V278.815ZM203.098 278.815H213.065V288.477H203.098V278.815ZM163.231 288.477H173.197V298.14H163.231V288.477ZM183.164 288.477H193.131V298.14H183.164V288.477ZM203.098 288.477H213.065V298.14H203.098V288.477ZM163.231 298.14H173.197V307.803H163.231V298.14ZM173.197 298.14H183.164V307.803H173.197V298.14ZM203.098 298.14H213.065V307.803H203.098V298.14ZM173.197 307.803H183.164V317.465H173.197V307.803ZM183.164 307.803H193.131V317.465H183.164V307.803ZM193.131 307.803H203.098V317.465H193.131V307.803Z" fill="#A9A9A9"/>
<path d="M103.429 269.152H113.395V278.815H103.429V269.152ZM113.395 269.152H123.362V278.815H113.395V269.152ZM123.362 269.152H133.329V278.815H123.362V269.152ZM133.329 269.152H143.296V278.815H133.329V269.152ZM143.296 269.152H153.262V278.815H143.296V269.152ZM103.429 278.815H113.395V288.477H103.429V278.815ZM103.429 288.477H113.395V298.14H103.429V288.477ZM113.395 288.477H123.362V298.14H113.395V288.477ZM123.362 288.477H133.329V298.14H123.362V288.477ZM133.329 288.477H143.296V298.14H133.329V288.477ZM103.429 298.14H113.395V307.803H103.429V298.14ZM103.429 307.803H113.395V317.465H103.429V307.803Z" fill="#A9A9A9"/>
<path d="M930.672 835.332H940.639V844.995H930.672V835.332ZM910.739 844.995H920.705V854.658H910.739V844.995ZM920.705 844.995H930.672V854.658H920.705V844.995ZM930.672 844.995H940.639V854.658H930.672V844.995ZM930.672 854.658H940.639V864.32H930.672V854.658ZM930.672 864.32H940.639V873.983H930.672V864.32ZM910.739 873.983H920.705V883.646H910.739V873.983ZM920.705 873.983H930.672V883.646H920.705V873.983ZM930.672 873.983H940.639V883.646H930.672V873.983ZM940.639 873.983H950.606V883.646H940.639V873.983ZM950.606 873.983H960.572V883.646H950.606V873.983Z" fill="#A9A9A9"/>
<path d="M860.904 835.332H870.87V844.995H860.904V835.332ZM870.87 835.332H880.837V844.995H870.87V835.332ZM880.837 835.332H890.804V844.995H880.837V835.332ZM850.937 844.995H860.904V854.658H850.937V844.995ZM880.837 844.995H890.804V854.658H880.837V844.995ZM890.804 844.995H900.771V854.658H890.804V844.995ZM850.937 854.658H860.904V864.32H850.937V854.658ZM870.87 854.658H880.837V864.32H870.87V854.658ZM890.804 854.658H900.771V864.32H890.804V854.658ZM850.937 864.32H860.904V873.983H850.937V864.32ZM860.904 864.32H870.87V873.983H860.904V864.32ZM890.804 864.32H900.771V873.983H890.804V864.32ZM860.904 873.983H870.87V883.646H860.904V873.983ZM870.87 873.983H880.837V883.646H870.87V873.983ZM880.837 873.983H890.804V883.646H880.837V873.983Z" fill="#A9A9A9"/>
<path d="M761.236 835.332H771.203V844.995H761.236V835.332ZM771.203 835.332H781.17V844.995H771.203V835.332ZM781.17 835.332H791.137V844.995H781.17V835.332ZM791.137 835.332H801.104V844.995H791.137V835.332ZM801.104 835.332H811.07V844.995H801.104V835.332ZM801.104 844.995H811.07V854.658H801.104V844.995ZM771.203 854.658H781.17V864.32H771.203V854.658ZM781.17 854.658H791.137V864.32H781.17V854.658ZM791.137 854.658H801.104V864.32H791.137V854.658ZM791.137 864.32H801.104V873.983H791.137V864.32ZM791.137 873.983H801.104V883.646H791.137V873.983Z" fill="#A9A9A9"/>
<path d="M711.402 835.332H721.368V844.995H711.402V835.332ZM721.368 835.332H731.335V844.995H721.368V835.332ZM731.335 835.332H741.302V844.995H731.335V835.332ZM701.435 844.995H711.402V854.658H701.435V844.995ZM731.335 844.995H741.302V854.658H731.335V844.995ZM741.302 844.995H751.269V854.658H741.302V844.995ZM701.435 854.658H711.402V864.32H701.435V854.658ZM721.368 854.658H731.335V864.32H721.368V854.658ZM741.302 854.658H751.269V864.32H741.302V854.658ZM701.435 864.32H711.402V873.983H701.435V864.32ZM711.402 864.32H721.368V873.983H711.402V864.32ZM741.302 864.32H751.269V873.983H741.302V864.32ZM711.402 873.983H721.368V883.646H711.402V873.983ZM721.368 873.983H731.335V883.646H721.368V873.983ZM731.335 873.983H741.302V883.646H731.335V873.983Z" fill="#A9A9A9"/>
<path d="M611.734 835.332H621.701V844.995H611.734V835.332ZM621.701 835.332H631.668V844.995H621.701V835.332ZM631.668 835.332H641.635V844.995H631.668V835.332ZM641.635 835.332H651.602V844.995H641.635V835.332ZM611.734 844.995H621.701V854.658H611.734V844.995ZM651.602 844.995H661.568V854.658H651.602V844.995ZM611.734 854.658H621.701V864.32H611.734V854.658ZM621.701 854.658H631.668V864.32H621.701V854.658ZM631.668 854.658H641.635V864.32H631.668V854.658ZM641.635 854.658H651.602V864.32H641.635V854.658ZM611.734 864.32H621.701V873.983H611.734V864.32ZM651.602 864.32H661.568V873.983H651.602V864.32ZM611.734 873.983H621.701V883.646H611.734V873.983ZM621.701 873.983H631.668V883.646H621.701V873.983ZM631.668 873.983H641.635V883.646H631.668V873.983ZM641.635 873.983H651.602V883.646H641.635V873.983Z" fill="#A9A9A9"/>
<path d="M551.933 835.332H561.899V844.995H551.933V835.332ZM561.899 835.332H571.866V844.995H561.899V835.332ZM571.866 835.332H581.833V844.995H571.866V835.332ZM581.833 835.332H591.8V844.995H581.833V835.332ZM591.8 844.995H601.767V854.658H591.8V844.995ZM561.899 854.658H571.866V864.32H561.899V854.658ZM571.866 854.658H581.833V864.32H571.866V854.658ZM581.833 854.658H591.8V864.32H581.833V854.658ZM551.933 864.32H561.899V873.983H551.933V864.32ZM551.933 873.983H561.899V883.646H551.933V873.983ZM561.899 873.983H571.866V883.646H561.899V873.983ZM571.866 873.983H581.833V883.646H571.866V873.983ZM581.833 873.983H591.8V883.646H581.833V873.983ZM591.8 873.983H601.767V883.646H591.8V873.983Z" fill="#A9A9A9"/>
<path d="M472.199 835.332H482.166V844.995H472.199V835.332ZM482.166 835.332H492.133V844.995H482.166V835.332ZM492.133 835.332H502.1V844.995H492.133V835.332ZM462.232 844.995H472.199V854.658H462.232V844.995ZM492.133 844.995H502.1V854.658H492.133V844.995ZM502.1 844.995H512.066V854.658H502.1V844.995ZM462.232 854.658H472.199V864.32H462.232V854.658ZM482.166 854.658H492.133V864.32H482.166V854.658ZM502.1 854.658H512.066V864.32H502.1V854.658ZM462.232 864.32H472.199V873.983H462.232V864.32ZM472.199 864.32H482.166V873.983H472.199V864.32ZM502.1 864.32H512.066V873.983H502.1V864.32ZM472.199 873.983H482.166V883.646H472.199V873.983ZM482.166 873.983H492.133V883.646H482.166V873.983ZM492.133 873.983H502.1V883.646H492.133V873.983Z" fill="#A9A9A9"/>
<path d="M422.367 835.332H432.333V844.995H422.367V835.332ZM402.433 844.995H412.4V854.658H402.433V844.995ZM412.4 844.995H422.367V854.658H412.4V844.995ZM422.367 844.995H432.333V854.658H422.367V844.995ZM422.367 854.658H432.333V864.32H422.367V854.658ZM422.367 864.32H432.333V873.983H422.367V864.32ZM402.433 873.983H412.4V883.646H402.433V873.983ZM412.4 873.983H422.367V883.646H412.4V873.983ZM422.367 873.983H432.333V883.646H422.367V873.983ZM432.333 873.983H442.3V883.646H432.333V873.983ZM442.3 873.983H452.267V883.646H442.3V873.983Z" fill="#A9A9A9"/>
<path d="M312.733 835.332H322.699V844.995H312.733V835.332ZM322.699 835.332H332.666V844.995H322.699V835.332ZM332.666 835.332H342.633V844.995H332.666V835.332ZM342.633 835.332H352.6V844.995H342.633V835.332ZM352.6 844.995H362.567V854.658H352.6V844.995ZM322.699 854.658H332.666V864.32H322.699V854.658ZM332.666 854.658H342.633V864.32H332.666V854.658ZM342.633 854.658H352.6V864.32H342.633V854.658ZM352.6 864.32H362.567V873.983H352.6V864.32ZM312.733 873.983H322.699V883.646H312.733V873.983ZM322.699 873.983H332.666V883.646H322.699V873.983ZM332.666 873.983H342.633V883.646H332.666V873.983ZM342.633 873.983H352.6V883.646H342.633V873.983Z" fill="#A9A9A9"/>
<path d="M252.929 835.332H262.895V844.995H252.929V835.332ZM282.829 835.332H292.796V844.995H282.829V835.332ZM252.929 844.995H262.895V854.658H252.929V844.995ZM282.829 844.995H292.796V854.658H282.829V844.995ZM262.895 854.658H272.862V864.32H262.895V854.658ZM272.862 854.658H282.829V864.32H272.862V854.658ZM282.829 854.658H292.796V864.32H282.829V854.658ZM292.796 854.658H302.762V864.32H292.796V854.658ZM282.829 864.32H292.796V873.983H282.829V864.32ZM282.829 873.983H292.796V883.646H282.829V873.983Z" fill="#A9A9A9"/>
<path d="M173.197 835.332H183.164V844.995H173.197V835.332ZM183.164 835.332H193.131V844.995H183.164V835.332ZM193.131 835.332H203.098V844.995H193.131V835.332ZM163.231 844.995H173.197V854.658H163.231V844.995ZM193.131 844.995H203.098V854.658H193.131V844.995ZM203.098 844.995H213.065V854.658H203.098V844.995ZM163.231 854.658H173.197V864.32H163.231V854.658ZM183.164 854.658H193.131V864.32H183.164V854.658ZM203.098 854.658H213.065V864.32H203.098V854.658ZM163.231 864.32H173.197V873.983H163.231V864.32ZM173.197 864.32H183.164V873.983H173.197V864.32ZM203.098 864.32H213.065V873.983H203.098V864.32ZM173.197 873.983H183.164V883.646H173.197V873.983ZM183.164 873.983H193.131V883.646H183.164V873.983ZM193.131 873.983H203.098V883.646H193.131V873.983Z" fill="#A9A9A9"/>
<path d="M103.429 835.332H113.395V844.995H103.429V835.332ZM113.395 835.332H123.362V844.995H113.395V835.332ZM123.362 835.332H133.329V844.995H123.362V835.332ZM133.329 835.332H143.296V844.995H133.329V835.332ZM143.296 835.332H153.262V844.995H143.296V835.332ZM103.429 844.995H113.395V854.658H103.429V844.995ZM103.429 854.658H113.395V864.32H103.429V854.658ZM113.395 854.658H123.362V864.32H113.395V854.658ZM123.362 854.658H133.329V864.32H123.362V854.658ZM133.329 854.658H143.296V864.32H133.329V854.658ZM103.429 864.32H113.395V873.983H103.429V864.32ZM103.429 873.983H113.395V883.646H103.429V873.983Z" fill="#A9A9A9"/>
<path d="M930.672 592.684H940.639V602.346H930.672V592.684ZM910.739 602.346H920.705V612.009H910.739V602.346ZM920.705 602.346H930.672V612.009H920.705V602.346ZM930.672 602.346H940.639V612.009H930.672V602.346ZM930.672 612.009H940.639V621.672H930.672V612.009ZM930.672 621.672H940.639V631.334H930.672V621.672ZM910.739 631.334H920.705V640.997H910.739V631.334ZM920.705 631.334H930.672V640.997H920.705V631.334ZM930.672 631.334H940.639V640.997H930.672V631.334ZM940.639 631.334H950.606V640.997H940.639V631.334ZM950.606 631.334H960.572V640.997H950.606V631.334Z" fill="#A9A9A9"/>
<path d="M860.904 592.684H870.87V602.346H860.904V592.684ZM870.87 592.684H880.837V602.346H870.87V592.684ZM880.837 592.684H890.804V602.346H880.837V592.684ZM850.937 602.346H860.904V612.009H850.937V602.346ZM880.837 602.346H890.804V612.009H880.837V602.346ZM890.804 602.346H900.771V612.009H890.804V602.346ZM850.937 612.009H860.904V621.672H850.937V612.009ZM870.87 612.009H880.837V621.672H870.87V612.009ZM890.804 612.009H900.771V621.672H890.804V612.009ZM850.937 621.672H860.904V631.334H850.937V621.672ZM860.904 621.672H870.87V631.334H860.904V621.672ZM890.804 621.672H900.771V631.334H890.804V621.672ZM860.904 631.334H870.87V640.997H860.904V631.334ZM870.87 631.334H880.837V640.997H870.87V631.334ZM880.837 631.334H890.804V640.997H880.837V631.334Z" fill="#A9A9A9"/>
<path d="M761.236 592.684H771.203V602.346H761.236V592.684ZM771.203 592.684H781.17V602.346H771.203V592.684ZM781.17 592.684H791.137V602.346H781.17V592.684ZM791.137 592.684H801.104V602.346H791.137V592.684ZM801.104 592.684H811.07V602.346H801.104V592.684ZM801.104 602.346H811.07V612.009H801.104V602.346ZM771.203 612.009H781.17V621.672H771.203V612.009ZM781.17 612.009H791.137V621.672H781.17V612.009ZM791.137 612.009H801.104V621.672H791.137V612.009ZM791.137 621.672H801.104V631.334H791.137V621.672ZM791.137 631.334H801.104V640.997H791.137V631.334Z" fill="#A9A9A9"/>
<path d="M711.402 592.684H721.368V602.346H711.402V592.684ZM721.368 592.684H731.335V602.346H721.368V592.684ZM731.335 592.684H741.302V602.346H731.335V592.684ZM701.435 602.346H711.402V612.009H701.435V602.346ZM731.335 602.346H741.302V612.009H731.335V602.346ZM741.302 602.346H751.269V612.009H741.302V602.346ZM701.435 612.009H711.402V621.672H701.435V612.009ZM721.368 612.009H731.335V621.672H721.368V612.009ZM741.302 612.009H751.269V621.672H741.302V612.009ZM701.435 621.672H711.402V631.334H701.435V621.672ZM711.402 621.672H721.368V631.334H711.402V621.672ZM741.302 621.672H751.269V631.334H741.302V621.672ZM711.402 631.334H721.368V640.997H711.402V631.334ZM721.368 631.334H731.335V640.997H721.368V631.334ZM731.335 631.334H741.302V640.997H731.335V631.334Z" fill="#A9A9A9"/>
<path d="M611.734 592.684H621.701V602.346H611.734V592.684ZM621.701 592.684H631.668V602.346H621.701V592.684ZM631.668 592.684H641.635V602.346H631.668V592.684ZM641.635 592.684H651.602V602.346H641.635V592.684ZM611.734 602.346H621.701V612.009H611.734V602.346ZM651.602 602.346H661.568V612.009H651.602V602.346ZM611.734 612.009H621.701V621.672H611.734V612.009ZM621.701 612.009H631.668V621.672H621.701V612.009ZM631.668 612.009H641.635V621.672H631.668V612.009ZM641.635 612.009H651.602V621.672H641.635V612.009ZM611.734 621.672H621.701V631.334H611.734V621.672ZM651.602 621.672H661.568V631.334H651.602V621.672ZM611.734 631.334H621.701V640.997H611.734V631.334ZM621.701 631.334H631.668V640.997H621.701V631.334ZM631.668 631.334H641.635V640.997H631.668V631.334ZM641.635 631.334H651.602V640.997H641.635V631.334Z" fill="#A9A9A9"/>
<path d="M551.933 592.684H561.899V602.346H551.933V592.684ZM561.899 592.684H571.866V602.346H561.899V592.684ZM571.866 592.684H581.833V602.346H571.866V592.684ZM581.833 592.684H591.8V602.346H581.833V592.684ZM591.8 602.346H601.767V612.009H591.8V602.346ZM561.899 612.009H571.866V621.672H561.899V612.009ZM571.866 612.009H581.833V621.672H571.866V612.009ZM581.833 612.009H591.8V621.672H581.833V612.009ZM551.933 621.672H561.899V631.334H551.933V621.672ZM551.933 631.334H561.899V640.997H551.933V631.334ZM561.899 631.334H571.866V640.997H561.899V631.334ZM571.866 631.334H581.833V640.997H571.866V631.334ZM581.833 631.334H591.8V640.997H581.833V631.334ZM591.8 631.334H601.767V640.997H591.8V631.334Z" fill="#A9A9A9"/>
<path d="M472.199 592.684H482.166V602.346H472.199V592.684ZM482.166 592.684H492.133V602.346H482.166V592.684ZM492.133 592.684H502.1V602.346H492.133V592.684ZM462.232 602.346H472.199V612.009H462.232V602.346ZM492.133 602.346H502.1V612.009H492.133V602.346ZM502.1 602.346H512.066V612.009H502.1V602.346ZM462.232 612.009H472.199V621.672H462.232V612.009ZM482.166 612.009H492.133V621.672H482.166V612.009ZM502.1 612.009H512.066V621.672H502.1V612.009ZM462.232 621.672H472.199V631.334H462.232V621.672ZM472.199 621.672H482.166V631.334H472.199V621.672ZM502.1 621.672H512.066V631.334H502.1V621.672ZM472.199 631.334H482.166V640.997H472.199V631.334ZM482.166 631.334H492.133V640.997H482.166V631.334ZM492.133 631.334H502.1V640.997H492.133V631.334Z" fill="#A9A9A9"/>
<path d="M422.367 592.684H432.333V602.346H422.367V592.684ZM402.433 602.346H412.4V612.009H402.433V602.346ZM412.4 602.346H422.367V612.009H412.4V602.346ZM422.367 602.346H432.333V612.009H422.367V602.346ZM422.367 612.009H432.333V621.672H422.367V612.009ZM422.367 621.672H432.333V631.334H422.367V621.672ZM402.433 631.334H412.4V640.997H402.433V631.334ZM412.4 631.334H422.367V640.997H412.4V631.334ZM422.367 631.334H432.333V640.997H422.367V631.334ZM432.333 631.334H442.3V640.997H432.333V631.334ZM442.3 631.334H452.267V640.997H442.3V631.334Z" fill="#A9A9A9"/>
<path d="M312.733 592.684H322.699V602.346H312.733V592.684ZM322.699 592.684H332.666V602.346H322.699V592.684ZM332.666 592.684H342.633V602.346H332.666V592.684ZM342.633 592.684H352.6V602.346H342.633V592.684ZM352.6 602.346H362.567V612.009H352.6V602.346ZM322.699 612.009H332.666V621.672H322.699V612.009ZM332.666 612.009H342.633V621.672H332.666V612.009ZM342.633 612.009H352.6V621.672H342.633V612.009ZM352.6 621.672H362.567V631.334H352.6V621.672ZM312.733 631.334H322.699V640.997H312.733V631.334ZM322.699 631.334H332.666V640.997H322.699V631.334ZM332.666 631.334H342.633V640.997H332.666V631.334ZM342.633 631.334H352.6V640.997H342.633V631.334Z" fill="#A9A9A9"/>
<path d="M252.929 592.684H262.895V602.346H252.929V592.684ZM282.829 592.684H292.796V602.346H282.829V592.684ZM252.929 602.346H262.895V612.009H252.929V602.346ZM282.829 602.346H292.796V612.009H282.829V602.346ZM262.895 612.009H272.862V621.672H262.895V612.009ZM272.862 612.009H282.829V621.672H272.862V612.009ZM282.829 612.009H292.796V621.672H282.829V612.009ZM292.796 612.009H302.762V621.672H292.796V612.009ZM282.829 621.672H292.796V631.334H282.829V621.672ZM282.829 631.334H292.796V640.997H282.829V631.334Z" fill="#A9A9A9"/>
<path d="M173.197 592.684H183.164V602.346H173.197V592.684ZM183.164 592.684H193.131V602.346H183.164V592.684ZM193.131 592.684H203.098V602.346H193.131V592.684ZM163.231 602.346H173.197V612.009H163.231V602.346ZM193.131 602.346H203.098V612.009H193.131V602.346ZM203.098 602.346H213.065V612.009H203.098V602.346ZM163.231 612.009H173.197V621.672H163.231V612.009ZM183.164 612.009H193.131V621.672H183.164V612.009ZM203.098 612.009H213.065V621.672H203.098V612.009ZM163.231 621.672H173.197V631.334H163.231V621.672ZM173.197 621.672H183.164V631.334H173.197V621.672ZM203.098 621.672H213.065V631.334H203.098V621.672ZM173.197 631.334H183.164V640.997H173.197V631.334ZM183.164 631.334H193.131V640.997H183.164V631.334ZM193.131 631.334H203.098V640.997H193.131V631.334Z" fill="#A9A9A9"/>
<path d="M103.429 592.683H113.395V602.346H103.429V592.683ZM113.395 592.683H123.362V602.346H113.395V592.683ZM123.362 592.683H133.329V602.346H123.362V592.683ZM133.329 592.683H143.296V602.346H133.329V592.683ZM143.296 592.683H153.262V602.346H143.296V592.683ZM103.429 602.346H113.395V612.009H103.429V602.346ZM103.429 612.009H113.395V621.671H103.429V612.009ZM113.395 612.009H123.362V621.671H113.395V612.009ZM123.362 612.009H133.329V621.671H123.362V612.009ZM133.329 612.009H143.296V621.671H133.329V612.009ZM103.429 621.671H113.395V631.334H103.429V621.671ZM103.429 631.334H113.395V640.997H103.429V631.334Z" fill="#A9A9A9"/>
<path d="M930.672 350.035H940.639V359.698H930.672V350.035ZM910.739 359.698H920.705V369.36H910.739V359.698ZM920.705 359.698H930.672V369.36H920.705V359.698ZM930.672 359.698H940.639V369.36H930.672V359.698ZM930.672 369.36H940.639V379.023H930.672V369.36ZM930.672 379.023H940.639V388.686H930.672V379.023ZM910.739 388.686H920.705V398.348H910.739V388.686ZM920.705 388.686H930.672V398.348H920.705V388.686ZM930.672 388.686H940.639V398.348H930.672V388.686ZM940.639 388.686H950.606V398.348H940.639V388.686ZM950.606 388.686H960.572V398.348H950.606V388.686Z" fill="#A9A9A9"/>
<path d="M860.904 350.035H870.87V359.698H860.904V350.035ZM870.87 350.035H880.837V359.698H870.87V350.035ZM880.837 350.035H890.804V359.698H880.837V350.035ZM850.937 359.698H860.904V369.36H850.937V359.698ZM880.837 359.698H890.804V369.36H880.837V359.698ZM890.804 359.698H900.771V369.36H890.804V359.698ZM850.937 369.36H860.904V379.023H850.937V369.36ZM870.87 369.36H880.837V379.023H870.87V369.36ZM890.804 369.36H900.771V379.023H890.804V369.36ZM850.937 379.023H860.904V388.686H850.937V379.023ZM860.904 379.023H870.87V388.686H860.904V379.023ZM890.804 379.023H900.771V388.686H890.804V379.023ZM860.904 388.686H870.87V398.348H860.904V388.686ZM870.87 388.686H880.837V398.348H870.87V388.686ZM880.837 388.686H890.804V398.348H880.837V388.686Z" fill="#A9A9A9"/>
<path d="M761.236 350.035H771.203V359.698H761.236V350.035ZM771.203 350.035H781.17V359.698H771.203V350.035ZM781.17 350.035H791.137V359.698H781.17V350.035ZM791.137 350.035H801.104V359.698H791.137V350.035ZM801.104 350.035H811.07V359.698H801.104V350.035ZM801.104 359.698H811.07V369.36H801.104V359.698ZM771.203 369.36H781.17V379.023H771.203V369.36ZM781.17 369.36H791.137V379.023H781.17V369.36ZM791.137 369.36H801.104V379.023H791.137V369.36ZM791.137 379.023H801.104V388.686H791.137V379.023ZM791.137 388.686H801.104V398.348H791.137V388.686Z" fill="#A9A9A9"/>
<path d="M711.402 350.035H721.368V359.698H711.402V350.035ZM721.368 350.035H731.335V359.698H721.368V350.035ZM731.335 350.035H741.302V359.698H731.335V350.035ZM701.435 359.698H711.402V369.36H701.435V359.698ZM731.335 359.698H741.302V369.36H731.335V359.698ZM741.302 359.698H751.269V369.36H741.302V359.698ZM701.435 369.36H711.402V379.023H701.435V369.36ZM721.368 369.36H731.335V379.023H721.368V369.36ZM741.302 369.36H751.269V379.023H741.302V369.36ZM701.435 379.023H711.402V388.686H701.435V379.023ZM711.402 379.023H721.368V388.686H711.402V379.023ZM741.302 379.023H751.269V388.686H741.302V379.023ZM711.402 388.686H721.368V398.348H711.402V388.686ZM721.368 388.686H731.335V398.348H721.368V388.686ZM731.335 388.686H741.302V398.348H731.335V388.686Z" fill="#A9A9A9"/>
<path d="M611.734 350.035H621.701V359.698H611.734V350.035ZM621.701 350.035H631.668V359.698H621.701V350.035ZM631.668 350.035H641.635V359.698H631.668V350.035ZM641.635 350.035H651.602V359.698H641.635V350.035ZM611.734 359.698H621.701V369.36H611.734V359.698ZM651.602 359.698H661.568V369.36H651.602V359.698ZM611.734 369.36H621.701V379.023H611.734V369.36ZM621.701 369.36H631.668V379.023H621.701V369.36ZM631.668 369.36H641.635V379.023H631.668V369.36ZM641.635 369.36H651.602V379.023H641.635V369.36ZM611.734 379.023H621.701V388.686H611.734V379.023ZM651.602 379.023H661.568V388.686H651.602V379.023ZM611.734 388.686H621.701V398.348H611.734V388.686ZM621.701 388.686H631.668V398.348H621.701V388.686ZM631.668 388.686H641.635V398.348H631.668V388.686ZM641.635 388.686H651.602V398.348H641.635V388.686Z" fill="#A9A9A9"/>
<path d="M551.933 350.035H561.899V359.698H551.933V350.035ZM561.899 350.035H571.866V359.698H561.899V350.035ZM571.866 350.035H581.833V359.698H571.866V350.035ZM581.833 350.035H591.8V359.698H581.833V350.035ZM591.8 359.698H601.767V369.36H591.8V359.698ZM561.899 369.36H571.866V379.023H561.899V369.36ZM571.866 369.36H581.833V379.023H571.866V369.36ZM581.833 369.36H591.8V379.023H581.833V369.36ZM551.933 379.023H561.899V388.686H551.933V379.023ZM551.933 388.686H561.899V398.348H551.933V388.686ZM561.899 388.686H571.866V398.348H561.899V388.686ZM571.866 388.686H581.833V398.348H571.866V388.686ZM581.833 388.686H591.8V398.348H581.833V388.686ZM591.8 388.686H601.767V398.348H591.8V388.686Z" fill="#A9A9A9"/>
<path d="M472.199 350.035H482.166V359.698H472.199V350.035ZM482.166 350.035H492.133V359.698H482.166V350.035ZM492.133 350.035H502.1V359.698H492.133V350.035ZM462.232 359.698H472.199V369.36H462.232V359.698ZM492.133 359.698H502.1V369.36H492.133V359.698ZM502.1 359.698H512.066V369.36H502.1V359.698ZM462.232 369.36H472.199V379.023H462.232V369.36ZM482.166 369.36H492.133V379.023H482.166V369.36ZM502.1 369.36H512.066V379.023H502.1V369.36ZM462.232 379.023H472.199V388.686H462.232V379.023ZM472.199 379.023H482.166V388.686H472.199V379.023ZM502.1 379.023H512.066V388.686H502.1V379.023ZM472.199 388.686H482.166V398.348H472.199V388.686ZM482.166 388.686H492.133V398.348H482.166V388.686ZM492.133 388.686H502.1V398.348H492.133V388.686Z" fill="#A9A9A9"/>
<path d="M422.367 350.035H432.333V359.698H422.367V350.035ZM402.433 359.698H412.4V369.36H402.433V359.698ZM412.4 359.698H422.367V369.36H412.4V359.698ZM422.367 359.698H432.333V369.36H422.367V359.698ZM422.367 369.36H432.333V379.023H422.367V369.36ZM422.367 379.023H432.333V388.686H422.367V379.023ZM402.433 388.686H412.4V398.348H402.433V388.686ZM412.4 388.686H422.367V398.348H412.4V388.686ZM422.367 388.686H432.333V398.348H422.367V388.686ZM432.333 388.686H442.3V398.348H432.333V388.686ZM442.3 388.686H452.267V398.348H442.3V388.686Z" fill="#A9A9A9"/>
<path d="M312.733 350.035H322.699V359.698H312.733V350.035ZM322.699 350.035H332.666V359.698H322.699V350.035ZM332.666 350.035H342.633V359.698H332.666V350.035ZM342.633 350.035H352.6V359.698H342.633V350.035ZM352.6 359.698H362.567V369.36H352.6V359.698ZM322.699 369.36H332.666V379.023H322.699V369.36ZM332.666 369.36H342.633V379.023H332.666V369.36ZM342.633 369.36H352.6V379.023H342.633V369.36ZM352.6 379.023H362.567V388.686H352.6V379.023ZM312.733 388.686H322.699V398.348H312.733V388.686ZM322.699 388.686H332.666V398.348H322.699V388.686ZM332.666 388.686H342.633V398.348H332.666V388.686ZM342.633 388.686H352.6V398.348H342.633V388.686Z" fill="#A9A9A9"/>
<path d="M252.929 350.035H262.895V359.698H252.929V350.035ZM282.829 350.035H292.796V359.698H282.829V350.035ZM252.929 359.698H262.895V369.36H252.929V359.698ZM282.829 359.698H292.796V369.36H282.829V359.698ZM262.895 369.36H272.862V379.023H262.895V369.36ZM272.862 369.36H282.829V379.023H272.862V369.36ZM282.829 369.36H292.796V379.023H282.829V369.36ZM292.796 369.36H302.762V379.023H292.796V369.36ZM282.829 379.023H292.796V388.686H282.829V379.023ZM282.829 388.686H292.796V398.348H282.829V388.686Z" fill="#A9A9A9"/>
<path d="M173.197 350.035H183.164V359.698H173.197V350.035ZM183.164 350.035H193.131V359.698H183.164V350.035ZM193.131 350.035H203.098V359.698H193.131V350.035ZM163.231 359.698H173.197V369.36H163.231V359.698ZM193.131 359.698H203.098V369.36H193.131V359.698ZM203.098 359.698H213.065V369.36H203.098V359.698ZM163.231 369.36H173.197V379.023H163.231V369.36ZM183.164 369.36H193.131V379.023H183.164V369.36ZM203.098 369.36H213.065V379.023H203.098V369.36ZM163.231 379.023H173.197V388.686H163.231V379.023ZM173.197 379.023H183.164V388.686H173.197V379.023ZM203.098 379.023H213.065V388.686H203.098V379.023ZM173.197 388.686H183.164V398.348H173.197V388.686ZM183.164 388.686H193.131V398.348H183.164V388.686ZM193.131 388.686H203.098V398.348H193.131V388.686Z" fill="#A9A9A9"/>
<path d="M103.429 350.035H113.395V359.698H103.429V350.035ZM113.395 350.035H123.362V359.698H113.395V350.035ZM123.362 350.035H133.329V359.698H123.362V350.035ZM133.329 350.035H143.296V359.698H133.329V350.035ZM143.296 350.035H153.262V359.698H143.296V350.035ZM103.429 359.698H113.395V369.36H103.429V359.698ZM103.429 369.36H113.395V379.023H103.429V369.36ZM113.395 369.36H123.362V379.023H113.395V369.36ZM123.362 369.36H133.329V379.023H123.362V369.36ZM133.329 369.36H143.296V379.023H133.329V369.36ZM103.429 379.023H113.395V388.686H103.429V379.023ZM103.429 388.686H113.395V398.348H103.429V388.686Z" fill="#A9A9A9"/>
<path d="M930.672 107.386H940.639V117.049H930.672V107.386ZM910.738 117.049H920.705V126.711H910.738V117.049ZM920.705 117.049H930.672V126.711H920.705V117.049ZM930.672 117.049H940.639V126.711H930.672V117.049ZM930.672 126.711H940.639V136.374H930.672V126.711ZM930.672 136.374H940.639V146.037H930.672V136.374ZM910.738 146.037H920.705V155.699H910.738V146.037ZM920.705 146.037H930.672V155.699H920.705V146.037ZM930.672 146.037H940.639V155.699H930.672V146.037ZM940.639 146.037H950.605V155.699H940.639V146.037ZM950.605 146.037H960.572V155.699H950.605V146.037Z" fill="#A9A9A9"/>
<path d="M860.903 107.386H870.87V117.049H860.903V107.386ZM870.87 107.386H880.837V117.049H870.87V107.386ZM880.837 107.386H890.804V117.049H880.837V107.386ZM850.936 117.049H860.903V126.711H850.936V117.049ZM880.837 117.049H890.804V126.711H880.837V117.049ZM890.804 117.049H900.77V126.711H890.804V117.049ZM850.936 126.711H860.903V136.374H850.936V126.711ZM870.87 126.711H880.837V136.374H870.87V126.711ZM890.804 126.711H900.77V136.374H890.804V126.711ZM850.936 136.374H860.903V146.037H850.936V136.374ZM860.903 136.374H870.87V146.037H860.903V136.374ZM890.804 136.374H900.77V146.037H890.804V136.374ZM860.903 146.037H870.87V155.699H860.903V146.037ZM870.87 146.037H880.837V155.699H870.87V146.037ZM880.837 146.037H890.804V155.699H880.837V146.037Z" fill="#A9A9A9"/>
<path d="M761.236 107.386H771.203V117.049H761.236V107.386ZM771.203 107.386H781.17V117.049H771.203V107.386ZM781.17 107.386H791.136V117.049H781.17V107.386ZM791.136 107.386H801.103V117.049H791.136V107.386ZM801.103 107.386H811.07V117.049H801.103V107.386ZM801.103 117.049H811.07V126.711H801.103V117.049ZM771.203 126.711H781.17V136.374H771.203V126.711ZM781.17 126.711H791.136V136.374H781.17V126.711ZM791.136 126.711H801.103V136.374H791.136V126.711ZM791.136 136.374H801.103V146.037H791.136V136.374ZM791.136 146.037H801.103V155.699H791.136V146.037Z" fill="#A9A9A9"/>
<path d="M711.401 107.386H721.368V117.049H711.401V107.386ZM721.368 107.386H731.335V117.049H721.368V107.386ZM731.335 107.386H741.302V117.049H731.335V107.386ZM701.434 117.049H711.401V126.711H701.434V117.049ZM731.335 117.049H741.302V126.711H731.335V117.049ZM741.302 117.049H751.268V126.711H741.302V117.049ZM701.434 126.711H711.401V136.374H701.434V126.711ZM721.368 126.711H731.335V136.374H721.368V126.711ZM741.302 126.711H751.268V136.374H741.302V126.711ZM701.434 136.374H711.401V146.037H701.434V136.374ZM711.401 136.374H721.368V146.037H711.401V136.374ZM741.302 136.374H751.268V146.037H741.302V136.374ZM711.401 146.037H721.368V155.699H711.401V146.037ZM721.368 146.037H731.335V155.699H721.368V146.037ZM731.335 146.037H741.302V155.699H731.335V146.037Z" fill="#A9A9A9"/>
<path d="M611.734 107.386H621.701V117.049H611.734V107.386ZM621.701 107.386H631.668V117.049H621.701V107.386ZM631.668 107.386H641.634V117.049H631.668V107.386ZM641.634 107.386H651.601V117.049H641.634V107.386ZM611.734 117.049H621.701V126.711H611.734V117.049ZM651.601 117.049H661.568V126.711H651.601V117.049ZM611.734 126.711H621.701V136.374H611.734V126.711ZM621.701 126.711H631.668V136.374H621.701V126.711ZM631.668 126.711H641.634V136.374H631.668V126.711ZM641.634 126.711H651.601V136.374H641.634V126.711ZM611.734 136.374H621.701V146.037H611.734V136.374ZM651.601 136.374H661.568V146.037H651.601V136.374ZM611.734 146.037H621.701V155.699H611.734V146.037ZM621.701 146.037H631.668V155.699H621.701V146.037ZM631.668 146.037H641.634V155.699H631.668V146.037ZM641.634 146.037H651.601V155.699H641.634V146.037Z" fill="#A9A9A9"/>
<path d="M551.932 107.386H561.899V117.049H551.932V107.386ZM561.899 107.386H571.866V117.049H561.899V107.386ZM571.866 107.386H581.833V117.049H571.866V107.386ZM581.833 107.386H591.799V117.049H581.833V107.386ZM591.799 117.049H601.766V126.711H591.799V117.049ZM561.899 126.711H571.866V136.374H561.899V126.711ZM571.866 126.711H581.833V136.374H571.866V126.711ZM581.833 126.711H591.799V136.374H581.833V126.711ZM551.932 136.374H561.899V146.037H551.932V136.374ZM551.932 146.037H561.899V155.699H551.932V146.037ZM561.899 146.037H571.866V155.699H561.899V146.037ZM571.866 146.037H581.833V155.699H571.866V146.037ZM581.833 146.037H591.799V155.699H581.833V146.037ZM591.799 146.037H601.766V155.699H591.799V146.037Z" fill="#A9A9A9"/>
<path d="M472.199 107.386H482.166V117.049H472.199V107.386ZM482.166 107.386H492.132V117.049H482.166V107.386ZM492.132 107.386H502.099V117.049H492.132V107.386ZM462.232 117.049H472.199V126.711H462.232V117.049ZM492.132 117.049H502.099V126.711H492.132V117.049ZM502.099 117.049H512.066V126.711H502.099V117.049ZM462.232 126.711H472.199V136.374H462.232V126.711ZM482.166 126.711H492.132V136.374H482.166V126.711ZM502.099 126.711H512.066V136.374H502.099V126.711ZM462.232 136.374H472.199V146.037H462.232V136.374ZM472.199 136.374H482.166V146.037H472.199V136.374ZM502.099 136.374H512.066V146.037H502.099V136.374ZM472.199 146.037H482.166V155.699H472.199V146.037ZM482.166 146.037H492.132V155.699H482.166V146.037ZM492.132 146.037H502.099V155.699H492.132V146.037Z" fill="#A9A9A9"/>
<path d="M422.366 107.386H432.333V117.049H422.366V107.386ZM402.433 117.049H412.399V126.711H402.433V117.049ZM412.399 117.049H422.366V126.711H412.399V117.049ZM422.366 117.049H432.333V126.711H422.366V117.049ZM422.366 126.711H432.333V136.374H422.366V126.711ZM422.366 136.374H432.333V146.037H422.366V136.374ZM402.433 146.037H412.399V155.699H402.433V146.037ZM412.399 146.037H422.366V155.699H412.399V146.037ZM422.366 146.037H432.333V155.699H422.366V146.037ZM432.333 146.037H442.3V155.699H432.333V146.037ZM442.3 146.037H452.267V155.699H442.3V146.037Z" fill="#A9A9A9"/>
<path d="M312.732 107.386H322.699V117.049H312.732V107.386ZM322.699 107.386H332.666V117.049H322.699V107.386ZM332.666 107.386H342.633V117.049H332.666V107.386ZM342.633 107.386H352.6V117.049H342.633V107.386ZM352.6 117.049H362.566V126.711H352.6V117.049ZM322.699 126.711H332.666V136.374H322.699V126.711ZM332.666 126.711H342.633V136.374H332.666V126.711ZM342.633 126.711H352.6V136.374H342.633V126.711ZM352.6 136.374H362.566V146.037H352.6V136.374ZM312.732 146.037H322.699V155.699H312.732V146.037ZM322.699 146.037H332.666V155.699H322.699V146.037ZM332.666 146.037H342.633V155.699H332.666V146.037ZM342.633 146.037H352.6V155.699H342.633V146.037Z" fill="#A9A9A9"/>
<path d="M252.928 107.386H262.895V117.049H252.928V107.386ZM282.829 107.386H292.795V117.049H282.829V107.386ZM252.928 117.049H262.895V126.711H252.928V117.049ZM282.829 117.049H292.795V126.711H282.829V117.049ZM262.895 126.711H272.862V136.374H262.895V126.711ZM272.862 126.711H282.829V136.374H272.862V126.711ZM282.829 126.711H292.795V136.374H282.829V126.711ZM292.795 126.711H302.762V136.374H292.795V126.711ZM282.829 136.374H292.795V146.037H282.829V136.374ZM282.829 146.037H292.795V155.699H282.829V146.037Z" fill="#A9A9A9"/>
<path d="M173.197 107.386H183.164V117.049H173.197V107.386ZM183.164 107.386H193.131V117.049H183.164V107.386ZM193.131 107.386H203.097V117.049H193.131V107.386ZM163.23 117.049H173.197V126.711H163.23V117.049ZM193.131 117.049H203.097V126.711H193.131V117.049ZM203.097 117.049H213.064V126.711H203.097V117.049ZM163.23 126.711H173.197V136.374H163.23V126.711ZM183.164 126.711H193.131V136.374H183.164V126.711ZM203.097 126.711H213.064V136.374H203.097V126.711ZM163.23 136.374H173.197V146.037H163.23V136.374ZM173.197 136.374H183.164V146.037H173.197V136.374ZM203.097 136.374H213.064V146.037H203.097V136.374ZM173.197 146.037H183.164V155.699H173.197V146.037ZM183.164 146.037H193.131V155.699H183.164V146.037ZM193.131 146.037H203.097V155.699H193.131V146.037Z" fill="#A9A9A9"/>
<path d="M103.429 107.386H113.395V117.049H103.429V107.386ZM113.395 107.386H123.362V117.049H113.395V107.386ZM123.362 107.386H133.329V117.049H123.362V107.386ZM133.329 107.386H143.296V117.049H133.329V107.386ZM143.296 107.386H153.262V117.049H143.296V107.386ZM103.429 117.049H113.395V126.711H103.429V117.049ZM103.429 126.711H113.395V136.374H103.429V126.711ZM113.395 126.711H123.362V136.374H113.395V126.711ZM123.362 126.711H133.329V136.374H123.362V126.711ZM133.329 126.711H143.296V136.374H133.329V126.711ZM103.429 136.374H113.395V146.037H103.429V136.374ZM103.429 146.037H113.395V155.699H103.429V146.037Z" fill="#A9A9A9"/>
<path d="M930.672 916.215H940.639V925.878H930.672V916.215ZM910.739 925.878H920.705V935.541H910.739V925.878ZM920.705 925.878H930.672V935.541H920.705V925.878ZM930.672 925.878H940.639V935.541H930.672V925.878ZM930.672 935.541H940.639V945.203H930.672V935.541ZM930.672 945.203H940.639V954.866H930.672V945.203ZM910.739 954.866H920.705V964.529H910.739V954.866ZM920.705 954.866H930.672V964.529H920.705V954.866ZM930.672 954.866H940.639V964.529H930.672V954.866ZM940.639 954.866H950.606V964.529H940.639V954.866ZM950.606 954.866H960.572V964.529H950.606V954.866Z" fill="#A9A9A9"/>
<path d="M860.904 916.215H870.87V925.878H860.904V916.215ZM870.87 916.215H880.837V925.878H870.87V916.215ZM880.837 916.215H890.804V925.878H880.837V916.215ZM850.937 925.878H860.904V935.541H850.937V925.878ZM880.837 925.878H890.804V935.541H880.837V925.878ZM890.804 925.878H900.771V935.541H890.804V925.878ZM850.937 935.541H860.904V945.203H850.937V935.541ZM870.87 935.541H880.837V945.203H870.87V935.541ZM890.804 935.541H900.771V945.203H890.804V935.541ZM850.937 945.203H860.904V954.866H850.937V945.203ZM860.904 945.203H870.87V954.866H860.904V945.203ZM890.804 945.203H900.771V954.866H890.804V945.203ZM860.904 954.866H870.87V964.529H860.904V954.866ZM870.87 954.866H880.837V964.529H870.87V954.866ZM880.837 954.866H890.804V964.529H880.837V954.866Z" fill="#A9A9A9"/>
<path d="M771.203 916.215H781.17V925.878H771.203V916.215ZM781.17 916.215H791.137V925.878H781.17V916.215ZM791.137 916.215H801.104V925.878H791.137V916.215ZM761.236 925.878H771.203V935.541H761.236V925.878ZM791.137 925.878H801.104V935.541H791.137V925.878ZM801.104 925.878H811.07V935.541H801.104V925.878ZM761.236 935.541H771.203V945.203H761.236V935.541ZM781.17 935.541H791.137V945.203H781.17V935.541ZM801.104 935.541H811.07V945.203H801.104V935.541ZM761.236 945.203H771.203V954.866H761.236V945.203ZM771.203 945.203H781.17V954.866H771.203V945.203ZM801.104 945.203H811.07V954.866H801.104V945.203ZM771.203 954.866H781.17V964.529H771.203V954.866ZM781.17 954.866H791.137V964.529H781.17V954.866ZM791.137 954.866H801.104V964.529H791.137V954.866Z" fill="#A9A9A9"/>
<path d="M721.368 916.215H731.335V925.878H721.368V916.215ZM701.435 925.878H711.402V935.541H701.435V925.878ZM711.402 925.878H721.368V935.541H711.402V925.878ZM721.368 925.878H731.335V935.541H721.368V925.878ZM721.368 935.541H731.335V945.203H721.368V935.541ZM721.368 945.203H731.335V954.866H721.368V945.203ZM701.435 954.866H711.402V964.529H701.435V954.866ZM711.402 954.866H721.368V964.529H711.402V954.866ZM721.368 954.866H731.335V964.529H721.368V954.866ZM731.335 954.866H741.302V964.529H731.335V954.866ZM741.302 954.866H751.269V964.529H741.302V954.866Z" fill="#A9A9A9"/>
<path d="M611.734 916.215H621.701V925.878H611.734V916.215ZM621.701 916.215H631.668V925.878H621.701V916.215ZM631.668 916.215H641.635V925.878H631.668V916.215ZM641.635 916.215H651.602V925.878H641.635V916.215ZM651.602 916.215H661.568V925.878H651.602V916.215ZM611.734 925.878H621.701V935.541H611.734V925.878ZM611.734 935.541H621.701V945.203H611.734V935.541ZM621.701 935.541H631.668V945.203H621.701V935.541ZM631.668 935.541H641.635V945.203H631.668V935.541ZM641.635 935.541H651.602V945.203H641.635V935.541ZM651.602 945.203H661.568V954.866H651.602V945.203ZM611.734 954.866H621.701V964.529H611.734V954.866ZM621.701 954.866H631.668V964.529H621.701V954.866ZM631.668 954.866H641.635V964.529H631.668V954.866ZM641.635 954.866H651.602V964.529H641.635V954.866Z" fill="#A9A9A9"/>
<path d="M551.933 916.215H561.899V925.878H551.933V916.215ZM581.833 916.215H591.8V925.878H581.833V916.215ZM551.933 925.878H561.899V935.541H551.933V925.878ZM581.833 925.878H591.8V935.541H581.833V925.878ZM561.899 935.541H571.866V945.203H561.899V935.541ZM571.866 935.541H581.833V945.203H571.866V935.541ZM581.833 935.541H591.8V945.203H581.833V935.541ZM591.8 935.541H601.767V945.203H591.8V935.541ZM581.833 945.203H591.8V954.866H581.833V945.203ZM581.833 954.866H591.8V964.529H581.833V954.866Z" fill="#A9A9A9"/>
<path d="M472.199 916.215H482.166V925.878H472.199V916.215ZM482.166 916.215H492.133V925.878H482.166V916.215ZM492.133 916.215H502.1V925.878H492.133V916.215ZM462.232 925.878H472.199V935.541H462.232V925.878ZM492.133 925.878H502.1V935.541H492.133V925.878ZM502.1 925.878H512.066V935.541H502.1V925.878ZM462.232 935.541H472.199V945.203H462.232V935.541ZM482.166 935.541H492.133V945.203H482.166V935.541ZM502.1 935.541H512.066V945.203H502.1V935.541ZM462.232 945.203H472.199V954.866H462.232V945.203ZM472.199 945.203H482.166V954.866H472.199V945.203ZM502.1 945.203H512.066V954.866H502.1V945.203ZM472.199 954.866H482.166V964.529H472.199V954.866ZM482.166 954.866H492.133V964.529H482.166V954.866ZM492.133 954.866H502.1V964.529H492.133V954.866Z" fill="#A9A9A9"/>
<path d="M422.367 916.215H432.333V925.878H422.367V916.215ZM402.433 925.878H412.4V935.541H402.433V925.878ZM412.4 925.878H422.367V935.541H412.4V925.878ZM422.367 925.878H432.333V935.541H422.367V925.878ZM422.367 935.541H432.333V945.203H422.367V935.541ZM422.367 945.203H432.333V954.866H422.367V945.203ZM402.433 954.866H412.4V964.529H402.433V954.866ZM412.4 954.866H422.367V964.529H412.4V954.866ZM422.367 954.866H432.333V964.529H422.367V954.866ZM432.333 954.866H442.3V964.529H432.333V954.866ZM442.3 954.866H452.267V964.529H442.3V954.866Z" fill="#A9A9A9"/>
<path d="M332.666 916.215H342.633V925.878H332.666V916.215ZM312.733 925.878H322.699V935.541H312.733V925.878ZM322.699 925.878H332.666V935.541H322.699V925.878ZM332.666 925.878H342.633V935.541H332.666V925.878ZM332.666 935.541H342.633V945.203H332.666V935.541ZM332.666 945.203H342.633V954.866H332.666V945.203ZM312.733 954.866H322.699V964.529H312.733V954.866ZM322.699 954.866H332.666V964.529H322.699V954.866ZM332.666 954.866H342.633V964.529H332.666V954.866ZM342.633 954.866H352.6V964.529H342.633V954.866ZM352.6 954.866H362.567V964.529H352.6V954.866Z" fill="#A9A9A9"/>
<path d="M252.929 916.215H262.895V925.878H252.929V916.215ZM282.829 916.215H292.796V925.878H282.829V916.215ZM252.929 925.878H262.895V935.541H252.929V925.878ZM282.829 925.878H292.796V935.541H282.829V925.878ZM262.895 935.541H272.862V945.203H262.895V935.541ZM272.862 935.541H282.829V945.203H272.862V935.541ZM282.829 935.541H292.796V945.203H282.829V935.541ZM292.796 935.541H302.762V945.203H292.796V935.541ZM282.829 945.203H292.796V954.866H282.829V945.203ZM282.829 954.866H292.796V964.529H282.829V954.866Z" fill="#A9A9A9"/>
<path d="M173.197 916.215H183.164V925.878H173.197V916.215ZM183.164 916.215H193.131V925.878H183.164V916.215ZM193.131 916.215H203.098V925.878H193.131V916.215ZM163.231 925.878H173.197V935.541H163.231V925.878ZM193.131 925.878H203.098V935.541H193.131V925.878ZM203.098 925.878H213.065V935.541H203.098V925.878ZM163.231 935.541H173.197V945.203H163.231V935.541ZM183.164 935.541H193.131V945.203H183.164V935.541ZM203.098 935.541H213.065V945.203H203.098V935.541ZM163.231 945.203H173.197V954.866H163.231V945.203ZM173.197 945.203H183.164V954.866H173.197V945.203ZM203.098 945.203H213.065V954.866H203.098V945.203ZM173.197 954.866H183.164V964.529H173.197V954.866ZM183.164 954.866H193.131V964.529H183.164V954.866ZM193.131 954.866H203.098V964.529H193.131V954.866Z" fill="#A9A9A9"/>
<path d="M103.429 916.215H113.395V925.878H103.429V916.215ZM113.395 916.215H123.362V925.878H113.395V916.215ZM123.362 916.215H133.329V925.878H123.362V916.215ZM133.329 916.215H143.296V925.878H133.329V916.215ZM143.296 916.215H153.262V925.878H143.296V916.215ZM103.429 925.878H113.395V935.541H103.429V925.878ZM103.429 935.541H113.395V945.203H103.429V935.541ZM113.395 935.541H123.362V945.203H113.395V935.541ZM123.362 935.541H133.329V945.203H123.362V935.541ZM133.329 935.541H143.296V945.203H133.329V935.541ZM103.429 945.203H113.395V954.866H103.429V945.203ZM103.429 954.866H113.395V964.529H103.429V954.866Z" fill="#A9A9A9"/>
<path d="M930.672 673.566H940.639V683.229H930.672V673.566ZM910.739 683.229H920.705V692.892H910.739V683.229ZM920.705 683.229H930.672V692.892H920.705V683.229ZM930.672 683.229H940.639V692.892H930.672V683.229ZM930.672 692.892H940.639V702.554H930.672V692.892ZM930.672 702.554H940.639V712.217H930.672V702.554ZM910.739 712.217H920.705V721.88H910.739V712.217ZM920.705 712.217H930.672V721.88H920.705V712.217ZM930.672 712.217H940.639V721.88H930.672V712.217ZM940.639 712.217H950.606V721.88H940.639V712.217ZM950.606 712.217H960.572V721.88H950.606V712.217Z" fill="#A9A9A9"/>
<path d="M860.904 673.566H870.87V683.229H860.904V673.566ZM870.87 673.566H880.837V683.229H870.87V673.566ZM880.837 673.566H890.804V683.229H880.837V673.566ZM850.937 683.229H860.904V692.892H850.937V683.229ZM880.837 683.229H890.804V692.892H880.837V683.229ZM890.804 683.229H900.771V692.892H890.804V683.229ZM850.937 692.892H860.904V702.554H850.937V692.892ZM870.87 692.892H880.837V702.554H870.87V692.892ZM890.804 692.892H900.771V702.554H890.804V692.892ZM850.937 702.554H860.904V712.217H850.937V702.554ZM860.904 702.554H870.87V712.217H860.904V702.554ZM890.804 702.554H900.771V712.217H890.804V702.554ZM860.904 712.217H870.87V721.88H860.904V712.217ZM870.87 712.217H880.837V721.88H870.87V712.217ZM880.837 712.217H890.804V721.88H880.837V712.217Z" fill="#A9A9A9"/>
<path d="M771.203 673.566H781.17V683.229H771.203V673.566ZM781.17 673.566H791.137V683.229H781.17V673.566ZM791.137 673.566H801.104V683.229H791.137V673.566ZM761.236 683.229H771.203V692.892H761.236V683.229ZM791.137 683.229H801.104V692.892H791.137V683.229ZM801.104 683.229H811.07V692.892H801.104V683.229ZM761.236 692.892H771.203V702.554H761.236V692.892ZM781.17 692.892H791.137V702.554H781.17V692.892ZM801.104 692.892H811.07V702.554H801.104V692.892ZM761.236 702.554H771.203V712.217H761.236V702.554ZM771.203 702.554H781.17V712.217H771.203V702.554ZM801.104 702.554H811.07V712.217H801.104V702.554ZM771.203 712.217H781.17V721.88H771.203V712.217ZM781.17 712.217H791.137V721.88H781.17V712.217ZM791.137 712.217H801.104V721.88H791.137V712.217Z" fill="#A9A9A9"/>
<path d="M721.368 673.566H731.335V683.229H721.368V673.566ZM701.435 683.229H711.402V692.892H701.435V683.229ZM711.402 683.229H721.368V692.892H711.402V683.229ZM721.368 683.229H731.335V692.892H721.368V683.229ZM721.368 692.892H731.335V702.554H721.368V692.892ZM721.368 702.554H731.335V712.217H721.368V702.554ZM701.435 712.217H711.402V721.88H701.435V712.217ZM711.402 712.217H721.368V721.88H711.402V712.217ZM721.368 712.217H731.335V721.88H721.368V712.217ZM731.335 712.217H741.302V721.88H731.335V712.217ZM741.302 712.217H751.269V721.88H741.302V712.217Z" fill="#A9A9A9"/>
<path d="M611.734 673.566H621.701V683.229H611.734V673.566ZM621.701 673.566H631.668V683.229H621.701V673.566ZM631.668 673.566H641.635V683.229H631.668V673.566ZM641.635 673.566H651.602V683.229H641.635V673.566ZM651.602 673.566H661.568V683.229H651.602V673.566ZM611.734 683.229H621.701V692.892H611.734V683.229ZM611.734 692.892H621.701V702.554H611.734V692.892ZM621.701 692.892H631.668V702.554H621.701V692.892ZM631.668 692.892H641.635V702.554H631.668V692.892ZM641.635 692.892H651.602V702.554H641.635V692.892ZM651.602 702.554H661.568V712.217H651.602V702.554ZM611.734 712.217H621.701V721.88H611.734V712.217ZM621.701 712.217H631.668V721.88H621.701V712.217ZM631.668 712.217H641.635V721.88H631.668V712.217ZM641.635 712.217H651.602V721.88H641.635V712.217Z" fill="#A9A9A9"/>
<path d="M551.933 673.566H561.899V683.229H551.933V673.566ZM581.833 673.566H591.8V683.229H581.833V673.566ZM551.933 683.229H561.899V692.892H551.933V683.229ZM581.833 683.229H591.8V692.892H581.833V683.229ZM561.899 692.892H571.866V702.554H561.899V692.892ZM571.866 692.892H581.833V702.554H571.866V692.892ZM581.833 692.892H591.8V702.554H581.833V692.892ZM591.8 692.892H601.767V702.554H591.8V692.892ZM581.833 702.554H591.8V712.217H581.833V702.554ZM581.833 712.217H591.8V721.88H581.833V712.217Z" fill="#A9A9A9"/>
<path d="M472.199 673.566H482.166V683.229H472.199V673.566ZM482.166 673.566H492.133V683.229H482.166V673.566ZM492.133 673.566H502.1V683.229H492.133V673.566ZM462.232 683.229H472.199V692.892H462.232V683.229ZM492.133 683.229H502.1V692.892H492.133V683.229ZM502.1 683.229H512.066V692.892H502.1V683.229ZM462.232 692.892H472.199V702.554H462.232V692.892ZM482.166 692.892H492.133V702.554H482.166V692.892ZM502.1 692.892H512.066V702.554H502.1V692.892ZM462.232 702.554H472.199V712.217H462.232V702.554ZM472.199 702.554H482.166V712.217H472.199V702.554ZM502.1 702.554H512.066V712.217H502.1V702.554ZM472.199 712.217H482.166V721.88H472.199V712.217ZM482.166 712.217H492.133V721.88H482.166V712.217ZM492.133 712.217H502.1V721.88H492.133V712.217Z" fill="#A9A9A9"/>
<path d="M422.367 673.566H432.333V683.229H422.367V673.566ZM402.433 683.229H412.4V692.892H402.433V683.229ZM412.4 683.229H422.367V692.892H412.4V683.229ZM422.367 683.229H432.333V692.892H422.367V683.229ZM422.367 692.892H432.333V702.554H422.367V692.892ZM422.367 702.554H432.333V712.217H422.367V702.554ZM402.433 712.217H412.4V721.88H402.433V712.217ZM412.4 712.217H422.367V721.88H412.4V712.217ZM422.367 712.217H432.333V721.88H422.367V712.217ZM432.333 712.217H442.3V721.88H432.333V712.217ZM442.3 712.217H452.267V721.88H442.3V712.217Z" fill="#A9A9A9"/>
<path d="M332.666 673.566H342.633V683.229H332.666V673.566ZM312.733 683.229H322.699V692.892H312.733V683.229ZM322.699 683.229H332.666V692.892H322.699V683.229ZM332.666 683.229H342.633V692.892H332.666V683.229ZM332.666 692.892H342.633V702.554H332.666V692.892ZM332.666 702.554H342.633V712.217H332.666V702.554ZM312.733 712.217H322.699V721.88H312.733V712.217ZM322.699 712.217H332.666V721.88H322.699V712.217ZM332.666 712.217H342.633V721.88H332.666V712.217ZM342.633 712.217H352.6V721.88H342.633V712.217ZM352.6 712.217H362.567V721.88H352.6V712.217Z" fill="#A9A9A9"/>
<path d="M252.929 673.566H262.895V683.229H252.929V673.566ZM282.829 673.566H292.796V683.229H282.829V673.566ZM252.929 683.229H262.895V692.892H252.929V683.229ZM282.829 683.229H292.796V692.892H282.829V683.229ZM262.895 692.892H272.862V702.554H262.895V692.892ZM272.862 692.892H282.829V702.554H272.862V692.892ZM282.829 692.892H292.796V702.554H282.829V692.892ZM292.796 692.892H302.762V702.554H292.796V692.892ZM282.829 702.554H292.796V712.217H282.829V702.554ZM282.829 712.217H292.796V721.88H282.829V712.217Z" fill="#A9A9A9"/>
<path d="M173.197 673.566H183.164V683.229H173.197V673.566ZM183.164 673.566H193.131V683.229H183.164V673.566ZM193.131 673.566H203.098V683.229H193.131V673.566ZM163.231 683.229H173.197V692.892H163.231V683.229ZM193.131 683.229H203.098V692.892H193.131V683.229ZM203.098 683.229H213.065V692.892H203.098V683.229ZM163.231 692.892H173.197V702.554H163.231V692.892ZM183.164 692.892H193.131V702.554H183.164V692.892ZM203.098 692.892H213.065V702.554H203.098V692.892ZM163.231 702.554H173.197V712.217H163.231V702.554ZM173.197 702.554H183.164V712.217H173.197V702.554ZM203.098 702.554H213.065V712.217H203.098V702.554ZM173.197 712.217H183.164V721.88H173.197V712.217ZM183.164 712.217H193.131V721.88H183.164V712.217ZM193.131 712.217H203.098V721.88H193.131V712.217Z" fill="#A9A9A9"/>
<path d="M103.429 673.566H113.395V683.229H103.429V673.566ZM113.395 673.566H123.362V683.229H113.395V673.566ZM123.362 673.566H133.329V683.229H123.362V673.566ZM133.329 673.566H143.296V683.229H133.329V673.566ZM143.296 673.566H153.262V683.229H143.296V673.566ZM103.429 683.229H113.395V692.892H103.429V683.229ZM103.429 692.892H113.395V702.554H103.429V692.892ZM113.395 692.892H123.362V702.554H113.395V692.892ZM123.362 692.892H133.329V702.554H123.362V692.892ZM133.329 692.892H143.296V702.554H133.329V692.892ZM103.429 702.554H113.395V712.217H103.429V702.554ZM103.429 712.217H113.395V721.88H103.429V712.217Z" fill="#A9A9A9"/>
<path d="M930.672 430.918H940.639V440.58H930.672V430.918ZM910.739 440.58H920.705V450.243H910.739V440.58ZM920.705 440.58H930.672V450.243H920.705V440.58ZM930.672 440.58H940.639V450.243H930.672V440.58ZM930.672 450.243H940.639V459.906H930.672V450.243ZM930.672 459.906H940.639V469.568H930.672V459.906ZM910.739 469.568H920.705V479.231H910.739V469.568ZM920.705 469.568H930.672V479.231H920.705V469.568ZM930.672 469.568H940.639V479.231H930.672V469.568ZM940.639 469.568H950.606V479.231H940.639V469.568ZM950.606 469.568H960.572V479.231H950.606V469.568Z" fill="#A9A9A9"/>
<path d="M860.904 430.918H870.87V440.58H860.904V430.918ZM870.87 430.918H880.837V440.58H870.87V430.918ZM880.837 430.918H890.804V440.58H880.837V430.918ZM850.937 440.58H860.904V450.243H850.937V440.58ZM880.837 440.58H890.804V450.243H880.837V440.58ZM890.804 440.58H900.771V450.243H890.804V440.58ZM850.937 450.243H860.904V459.906H850.937V450.243ZM870.87 450.243H880.837V459.906H870.87V450.243ZM890.804 450.243H900.771V459.906H890.804V450.243ZM850.937 459.906H860.904V469.568H850.937V459.906ZM860.904 459.906H870.87V469.568H860.904V459.906ZM890.804 459.906H900.771V469.568H890.804V459.906ZM860.904 469.568H870.87V479.231H860.904V469.568ZM870.87 469.568H880.837V479.231H870.87V469.568ZM880.837 469.568H890.804V479.231H880.837V469.568Z" fill="#A9A9A9"/>
<path d="M771.203 430.918H781.17V440.58H771.203V430.918ZM781.17 430.918H791.137V440.58H781.17V430.918ZM791.137 430.918H801.104V440.58H791.137V430.918ZM761.236 440.58H771.203V450.243H761.236V440.58ZM791.137 440.58H801.104V450.243H791.137V440.58ZM801.104 440.58H811.07V450.243H801.104V440.58ZM761.236 450.243H771.203V459.906H761.236V450.243ZM781.17 450.243H791.137V459.906H781.17V450.243ZM801.104 450.243H811.07V459.906H801.104V450.243ZM761.236 459.906H771.203V469.568H761.236V459.906ZM771.203 459.906H781.17V469.568H771.203V459.906ZM801.104 459.906H811.07V469.568H801.104V459.906ZM771.203 469.568H781.17V479.231H771.203V469.568ZM781.17 469.568H791.137V479.231H781.17V469.568ZM791.137 469.568H801.104V479.231H791.137V469.568Z" fill="#A9A9A9"/>
<path d="M721.368 430.918H731.335V440.58H721.368V430.918ZM701.435 440.58H711.402V450.243H701.435V440.58ZM711.402 440.58H721.368V450.243H711.402V440.58ZM721.368 440.58H731.335V450.243H721.368V440.58ZM721.368 450.243H731.335V459.906H721.368V450.243ZM721.368 459.906H731.335V469.568H721.368V459.906ZM701.435 469.568H711.402V479.231H701.435V469.568ZM711.402 469.568H721.368V479.231H711.402V469.568ZM721.368 469.568H731.335V479.231H721.368V469.568ZM731.335 469.568H741.302V479.231H731.335V469.568ZM741.302 469.568H751.269V479.231H741.302V469.568Z" fill="#A9A9A9"/>
<path d="M611.734 430.918H621.701V440.58H611.734V430.918ZM621.701 430.918H631.668V440.58H621.701V430.918ZM631.668 430.918H641.635V440.58H631.668V430.918ZM641.635 430.918H651.602V440.58H641.635V430.918ZM651.602 430.918H661.568V440.58H651.602V430.918ZM611.734 440.58H621.701V450.243H611.734V440.58ZM611.734 450.243H621.701V459.906H611.734V450.243ZM621.701 450.243H631.668V459.906H621.701V450.243ZM631.668 450.243H641.635V459.906H631.668V450.243ZM641.635 450.243H651.602V459.906H641.635V450.243ZM651.602 459.906H661.568V469.568H651.602V459.906ZM611.734 469.568H621.701V479.231H611.734V469.568ZM621.701 469.568H631.668V479.231H621.701V469.568ZM631.668 469.568H641.635V479.231H631.668V469.568ZM641.635 469.568H651.602V479.231H641.635V469.568Z" fill="#A9A9A9"/>
<path d="M551.933 430.918H561.899V440.58H551.933V430.918ZM581.833 430.918H591.8V440.58H581.833V430.918ZM551.933 440.58H561.899V450.243H551.933V440.58ZM581.833 440.58H591.8V450.243H581.833V440.58ZM561.899 450.243H571.866V459.906H561.899V450.243ZM571.866 450.243H581.833V459.906H571.866V450.243ZM581.833 450.243H591.8V459.906H581.833V450.243ZM591.8 450.243H601.767V459.906H591.8V450.243ZM581.833 459.906H591.8V469.568H581.833V459.906ZM581.833 469.568H591.8V479.231H581.833V469.568Z" fill="#A9A9A9"/>
<path d="M472.199 430.918H482.166V440.58H472.199V430.918ZM482.166 430.918H492.133V440.58H482.166V430.918ZM492.133 430.918H502.1V440.58H492.133V430.918ZM462.232 440.58H472.199V450.243H462.232V440.58ZM492.133 440.58H502.1V450.243H492.133V440.58ZM502.1 440.58H512.066V450.243H502.1V440.58ZM462.232 450.243H472.199V459.906H462.232V450.243ZM482.166 450.243H492.133V459.906H482.166V450.243ZM502.1 450.243H512.066V459.906H502.1V450.243ZM462.232 459.906H472.199V469.568H462.232V459.906ZM472.199 459.906H482.166V469.568H472.199V459.906ZM502.1 459.906H512.066V469.568H502.1V459.906ZM472.199 469.568H482.166V479.231H472.199V469.568ZM482.166 469.568H492.133V479.231H482.166V469.568ZM492.133 469.568H502.1V479.231H492.133V469.568Z" fill="#A9A9A9"/>
<path d="M422.367 430.918H432.333V440.58H422.367V430.918ZM402.433 440.58H412.4V450.243H402.433V440.58ZM412.4 440.58H422.367V450.243H412.4V440.58ZM422.367 440.58H432.333V450.243H422.367V440.58ZM422.367 450.243H432.333V459.906H422.367V450.243ZM422.367 459.906H432.333V469.568H422.367V459.906ZM402.433 469.568H412.4V479.231H402.433V469.568ZM412.4 469.568H422.367V479.231H412.4V469.568ZM422.367 469.568H432.333V479.231H422.367V469.568ZM432.333 469.568H442.3V479.231H432.333V469.568ZM442.3 469.568H452.267V479.231H442.3V469.568Z" fill="#A9A9A9"/>
<path d="M332.666 430.918H342.633V440.58H332.666V430.918ZM312.733 440.58H322.699V450.243H312.733V440.58ZM322.699 440.58H332.666V450.243H322.699V440.58ZM332.666 440.58H342.633V450.243H332.666V440.58ZM332.666 450.243H342.633V459.906H332.666V450.243ZM332.666 459.906H342.633V469.568H332.666V459.906ZM312.733 469.568H322.699V479.231H312.733V469.568ZM322.699 469.568H332.666V479.231H322.699V469.568ZM332.666 469.568H342.633V479.231H332.666V469.568ZM342.633 469.568H352.6V479.231H342.633V469.568ZM352.6 469.568H362.567V479.231H352.6V469.568Z" fill="#A9A9A9"/>
<path d="M252.929 430.918H262.895V440.58H252.929V430.918ZM282.829 430.918H292.796V440.58H282.829V430.918ZM252.929 440.58H262.895V450.243H252.929V440.58ZM282.829 440.58H292.796V450.243H282.829V440.58ZM262.895 450.243H272.862V459.906H262.895V450.243ZM272.862 450.243H282.829V459.906H272.862V450.243ZM282.829 450.243H292.796V459.906H282.829V450.243ZM292.796 450.243H302.762V459.906H292.796V450.243ZM282.829 459.906H292.796V469.568H282.829V459.906ZM282.829 469.568H292.796V479.231H282.829V469.568Z" fill="#A9A9A9"/>
<path d="M173.197 430.918H183.164V440.58H173.197V430.918ZM183.164 430.918H193.131V440.58H183.164V430.918ZM193.131 430.918H203.098V440.58H193.131V430.918ZM163.231 440.58H173.197V450.243H163.231V440.58ZM193.131 440.58H203.098V450.243H193.131V440.58ZM203.098 440.58H213.065V450.243H203.098V440.58ZM163.231 450.243H173.197V459.906H163.231V450.243ZM183.164 450.243H193.131V459.906H183.164V450.243ZM203.098 450.243H213.065V459.906H203.098V450.243ZM163.231 459.906H173.197V469.568H163.231V459.906ZM173.197 459.906H183.164V469.568H173.197V459.906ZM203.098 459.906H213.065V469.568H203.098V459.906ZM173.197 469.568H183.164V479.231H173.197V469.568ZM183.164 469.568H193.131V479.231H183.164V469.568ZM193.131 469.568H203.098V479.231H193.131V469.568Z" fill="#A9A9A9"/>
<path d="M103.429 430.918H113.395V440.58H103.429V430.918ZM113.395 430.918H123.362V440.58H113.395V430.918ZM123.362 430.918H133.329V440.58H123.362V430.918ZM133.329 430.918H143.296V440.58H133.329V430.918ZM143.296 430.918H153.262V440.58H143.296V430.918ZM103.429 440.58H113.395V450.243H103.429V440.58ZM103.429 450.243H113.395V459.906H103.429V450.243ZM113.395 450.243H123.362V459.906H113.395V450.243ZM123.362 450.243H133.329V459.906H123.362V450.243ZM133.329 450.243H143.296V459.906H133.329V450.243ZM103.429 459.906H113.395V469.568H103.429V459.906ZM103.429 469.568H113.395V479.231H103.429V469.568Z" fill="#A9A9A9"/>
<path d="M930.672 188.269H940.639V197.932H930.672V188.269ZM910.739 197.932H920.705V207.594H910.739V197.932ZM920.705 197.932H930.672V207.594H920.705V197.932ZM930.672 197.932H940.639V207.594H930.672V197.932ZM930.672 207.594H940.639V217.257H930.672V207.594ZM930.672 217.257H940.639V226.92H930.672V217.257ZM910.739 226.92H920.705V236.582H910.739V226.92ZM920.705 226.92H930.672V236.582H920.705V226.92ZM930.672 226.92H940.639V236.582H930.672V226.92ZM940.639 226.92H950.606V236.582H940.639V226.92ZM950.606 226.92H960.572V236.582H950.606V226.92Z" fill="#A9A9A9"/>
<path d="M860.904 188.269H870.87V197.932H860.904V188.269ZM870.87 188.269H880.837V197.932H870.87V188.269ZM880.837 188.269H890.804V197.932H880.837V188.269ZM850.937 197.932H860.904V207.594H850.937V197.932ZM880.837 197.932H890.804V207.594H880.837V197.932ZM890.804 197.932H900.771V207.594H890.804V197.932ZM850.937 207.594H860.904V217.257H850.937V207.594ZM870.87 207.594H880.837V217.257H870.87V207.594ZM890.804 207.594H900.771V217.257H890.804V207.594ZM850.937 217.257H860.904V226.92H850.937V217.257ZM860.904 217.257H870.87V226.92H860.904V217.257ZM890.804 217.257H900.771V226.92H890.804V217.257ZM860.904 226.92H870.87V236.582H860.904V226.92ZM870.87 226.92H880.837V236.582H870.87V226.92ZM880.837 226.92H890.804V236.582H880.837V226.92Z" fill="#A9A9A9"/>
<path d="M771.203 188.269H781.17V197.932H771.203V188.269ZM781.17 188.269H791.137V197.932H781.17V188.269ZM791.137 188.269H801.104V197.932H791.137V188.269ZM761.236 197.932H771.203V207.594H761.236V197.932ZM791.137 197.932H801.104V207.594H791.137V197.932ZM801.104 197.932H811.07V207.594H801.104V197.932ZM761.236 207.594H771.203V217.257H761.236V207.594ZM781.17 207.594H791.137V217.257H781.17V207.594ZM801.104 207.594H811.07V217.257H801.104V207.594ZM761.236 217.257H771.203V226.92H761.236V217.257ZM771.203 217.257H781.17V226.92H771.203V217.257ZM801.104 217.257H811.07V226.92H801.104V217.257ZM771.203 226.92H781.17V236.582H771.203V226.92ZM781.17 226.92H791.137V236.582H781.17V226.92ZM791.137 226.92H801.104V236.582H791.137V226.92Z" fill="#A9A9A9"/>
<path d="M721.368 188.269H731.335V197.932H721.368V188.269ZM701.435 197.932H711.402V207.594H701.435V197.932ZM711.402 197.932H721.368V207.594H711.402V197.932ZM721.368 197.932H731.335V207.594H721.368V197.932ZM721.368 207.594H731.335V217.257H721.368V207.594ZM721.368 217.257H731.335V226.92H721.368V217.257ZM701.435 226.92H711.402V236.582H701.435V226.92ZM711.402 226.92H721.368V236.582H711.402V226.92ZM721.368 226.92H731.335V236.582H721.368V226.92ZM731.335 226.92H741.302V236.582H731.335V226.92ZM741.302 226.92H751.269V236.582H741.302V226.92Z" fill="#A9A9A9"/>
<path d="M611.734 188.269H621.701V197.932H611.734V188.269ZM621.701 188.269H631.668V197.932H621.701V188.269ZM631.668 188.269H641.635V197.932H631.668V188.269ZM641.635 188.269H651.602V197.932H641.635V188.269ZM651.602 188.269H661.568V197.932H651.602V188.269ZM611.734 197.932H621.701V207.594H611.734V197.932ZM611.734 207.594H621.701V217.257H611.734V207.594ZM621.701 207.594H631.668V217.257H621.701V207.594ZM631.668 207.594H641.635V217.257H631.668V207.594ZM641.635 207.594H651.602V217.257H641.635V207.594ZM651.602 217.257H661.568V226.92H651.602V217.257ZM611.734 226.92H621.701V236.582H611.734V226.92ZM621.701 226.92H631.668V236.582H621.701V226.92ZM631.668 226.92H641.635V236.582H631.668V226.92ZM641.635 226.92H651.602V236.582H641.635V226.92Z" fill="#A9A9A9"/>
<path d="M551.933 188.269H561.899V197.932H551.933V188.269ZM581.833 188.269H591.8V197.932H581.833V188.269ZM551.933 197.932H561.899V207.594H551.933V197.932ZM581.833 197.932H591.8V207.594H581.833V197.932ZM561.899 207.594H571.866V217.257H561.899V207.594ZM571.866 207.594H581.833V217.257H571.866V207.594ZM581.833 207.594H591.8V217.257H581.833V207.594ZM591.8 207.594H601.767V217.257H591.8V207.594ZM581.833 217.257H591.8V226.92H581.833V217.257ZM581.833 226.92H591.8V236.582H581.833V226.92Z" fill="#A9A9A9"/>
<path d="M472.199 188.269H482.166V197.932H472.199V188.269ZM482.166 188.269H492.133V197.932H482.166V188.269ZM492.133 188.269H502.1V197.932H492.133V188.269ZM462.232 197.932H472.199V207.594H462.232V197.932ZM492.133 197.932H502.1V207.594H492.133V197.932ZM502.1 197.932H512.066V207.594H502.1V197.932ZM462.232 207.594H472.199V217.257H462.232V207.594ZM482.166 207.594H492.133V217.257H482.166V207.594ZM502.1 207.594H512.066V217.257H502.1V207.594ZM462.232 217.257H472.199V226.92H462.232V217.257ZM472.199 217.257H482.166V226.92H472.199V217.257ZM502.1 217.257H512.066V226.92H502.1V217.257ZM472.199 226.92H482.166V236.582H472.199V226.92ZM482.166 226.92H492.133V236.582H482.166V226.92ZM492.133 226.92H502.1V236.582H492.133V226.92Z" fill="#A9A9A9"/>
<path d="M422.367 188.269H432.333V197.932H422.367V188.269ZM402.433 197.932H412.4V207.594H402.433V197.932ZM412.4 197.932H422.367V207.594H412.4V197.932ZM422.367 197.932H432.333V207.594H422.367V197.932ZM422.367 207.594H432.333V217.257H422.367V207.594ZM422.367 217.257H432.333V226.92H422.367V217.257ZM402.433 226.92H412.4V236.582H402.433V226.92ZM412.4 226.92H422.367V236.582H412.4V226.92ZM422.367 226.92H432.333V236.582H422.367V226.92ZM432.333 226.92H442.3V236.582H432.333V226.92ZM442.3 226.92H452.267V236.582H442.3V226.92Z" fill="#A9A9A9"/>
<path d="M332.666 188.269H342.633V197.932H332.666V188.269ZM312.733 197.932H322.699V207.594H312.733V197.932ZM322.699 197.932H332.666V207.594H322.699V197.932ZM332.666 197.932H342.633V207.594H332.666V197.932ZM332.666 207.594H342.633V217.257H332.666V207.594ZM332.666 217.257H342.633V226.92H332.666V217.257ZM312.733 226.92H322.699V236.582H312.733V226.92ZM322.699 226.92H332.666V236.582H322.699V226.92ZM332.666 226.92H342.633V236.582H332.666V226.92ZM342.633 226.92H352.6V236.582H342.633V226.92ZM352.6 226.92H362.567V236.582H352.6V226.92Z" fill="#A9A9A9"/>
<path d="M252.929 188.269H262.895V197.932H252.929V188.269ZM282.829 188.269H292.796V197.932H282.829V188.269ZM252.929 197.932H262.895V207.594H252.929V197.932ZM282.829 197.932H292.796V207.594H282.829V197.932ZM262.895 207.594H272.862V217.257H262.895V207.594ZM272.862 207.594H282.829V217.257H272.862V207.594ZM282.829 207.594H292.796V217.257H282.829V207.594ZM292.796 207.594H302.762V217.257H292.796V207.594ZM282.829 217.257H292.796V226.92H282.829V217.257ZM282.829 226.92H292.796V236.582H282.829V226.92Z" fill="#A9A9A9"/>
<path d="M173.197 188.269H183.164V197.932H173.197V188.269ZM183.164 188.269H193.131V197.932H183.164V188.269ZM193.131 188.269H203.098V197.932H193.131V188.269ZM163.231 197.932H173.197V207.594H163.231V197.932ZM193.131 197.932H203.098V207.594H193.131V197.932ZM203.098 197.932H213.065V207.594H203.098V197.932ZM163.231 207.594H173.197V217.257H163.231V207.594ZM183.164 207.594H193.131V217.257H183.164V207.594ZM203.098 207.594H213.065V217.257H203.098V207.594ZM163.231 217.257H173.197V226.92H163.231V217.257ZM173.197 217.257H183.164V226.92H173.197V217.257ZM203.098 217.257H213.065V226.92H203.098V217.257ZM173.197 226.92H183.164V236.582H173.197V226.92ZM183.164 226.92H193.131V236.582H183.164V226.92ZM193.131 226.92H203.098V236.582H193.131V226.92Z" fill="#A9A9A9"/>
<path d="M103.429 188.269H113.395V197.932H103.429V188.269ZM113.395 188.269H123.362V197.932H113.395V188.269ZM123.362 188.269H133.329V197.932H123.362V188.269ZM133.329 188.269H143.296V197.932H133.329V188.269ZM143.296 188.269H153.262V197.932H143.296V188.269ZM103.429 197.932H113.395V207.594H103.429V197.932ZM103.429 207.594H113.395V217.257H103.429V207.594ZM113.395 207.594H123.362V217.257H113.395V207.594ZM123.362 207.594H133.329V217.257H123.362V207.594ZM133.329 207.594H143.296V217.257H133.329V207.594ZM103.429 217.257H113.395V226.92H103.429V217.257ZM103.429 226.92H113.395V236.582H103.429V226.92Z" fill="#A9A9A9"/>
<rect x="32" y="35.9574" width="1000" height="1000" rx="142.857" fill="url(#paint0_radial_22_597)"/>
<mask id="mask0_22_597" style="mask-type:alpha" maskUnits="userSpaceOnUse" x="32" y="35" width="1000" height="1001">
<rect x="32" y="35.9574" width="1000" height="1000" rx="142.857" fill="black"/>
</mask>
<g mask="url(#mask0_22_597)">
<g filter="url(#filter0_f_22_597)">
<path fill-rule="evenodd" clip-rule="evenodd" d="M174.857 35.9574C95.9593 35.9574 32 99.9167 32 178.815V893.1C32 971.998 95.9594 1035.96 174.857 1035.96H889.143C968.041 1035.96 1032 971.998 1032 893.1V178.815C1032 99.9167 968.041 35.9574 889.143 35.9574H174.857ZM199.014 131.543C159.565 131.543 127.585 163.522 127.585 202.971V868.944C127.585 908.393 159.565 940.372 199.014 940.372H864.987C904.435 940.372 936.415 908.393 936.415 868.944V202.971C936.415 163.522 904.435 131.543 864.987 131.543H199.014Z" fill="#2C2C2C"/>
</g>
</g>
<g filter="url(#filter1_d_22_597)">
<path fill-rule="evenodd" clip-rule="evenodd" d="M884.955 302.461L496.731 670.863L366.43 547.216L754.654 178.815L884.955 302.461ZM754.656 240.213L431.134 547.216L496.73 609.463L820.252 302.46L754.656 240.213Z" fill="#E8E8E8"/>
<path d="M366.427 584.03H320.674V714.279L457.935 714.279V670.863H366.427V584.03Z" fill="#E8E8E8"/>
<path d="M179.042 849.684H224.795V893.1H179.042V849.684Z" fill="#05FFE1"/>
<path d="M224.797 806.267H270.549V849.684L224.795 849.684L224.797 806.267Z" fill="#05FFE1"/>
<path d="M270.549 806.267H316.301V849.684H270.549V806.267Z" fill="#05FFE1"/>
<path d="M316.299 762.85H362.052V806.267L316.301 806.267L316.299 762.85Z" fill="#05FFE1"/>
</g>
<defs>
<filter id="filter0_f_22_597" x="-182.286" y="-178.328" width="1428.57" height="1428.57" filterUnits="userSpaceOnUse" color-interpolation-filters="sRGB">
<feFlood flood-opacity="0" result="BackgroundImageFix"/>
<feBlend mode="normal" in="SourceGraphic" in2="BackgroundImageFix" result="shape"/>
<feGaussianBlur stdDeviation="107.143" result="effect1_foregroundBlur_22_597"/>
</filter>
<filter id="filter1_d_22_597" x="0.470917" y="0.243065" width="1063.06" height="1071.43" filterUnits="userSpaceOnUse" color-interpolation-filters="sRGB">
<feFlood flood-opacity="0" result="BackgroundImageFix"/>
<feColorMatrix in="SourceAlpha" type="matrix" values="0 0 0 0 0 0 0 0 0 0 0 0 0 0 0 0 0 0 127 0" result="hardAlpha"/>
<feOffset/>
<feGaussianBlur stdDeviation="89.2857"/>
<feComposite in2="hardAlpha" operator="out"/>
<feColorMatrix type="matrix" values="0 0 0 0 0.286275 0 0 0 0 0.286275 0 0 0 0 0.286275 0 0 0 1 0"/>
<feBlend mode="normal" in2="BackgroundImageFix" result="effect1_dropShadow_22_597"/>
<feBlend mode="normal" in="SourceGraphic" in2="effect1_dropShadow_22_597" result="shape"/>
</filter>
<radialGradient id="paint0_radial_22_597" cx="0" cy="0" r="1" gradientUnits="userSpaceOnUse" gradientTransform="translate(532 535.957) rotate(90) scale(500)">
<stop offset="0.39" stop-color="#494949" stop-opacity="0"/>
<stop offset="1" stop-color="#393939" stop-opacity="0.4"/>
</radialGradient>
</defs>
</svg>
